<svg width="555" height="552" viewBox="0 0 555 552" fill="none" xmlns="http://www.w3.org/2000/svg">
<path d="M379.831 145.772H284.515V151.204H379.831V145.772Z" fill="#EBEBEB"/>
<path d="M356.021 151.27L359.374 158.578H363.325L366.189 151.27H356.021Z" fill="#EBEBEB"/>
<path d="M300.888 151.27L304.24 158.578H308.18L311.055 151.27H300.888Z" fill="#EBEBEB"/>
<path d="M485.88 344.735V99.0509H385.015V344.735H485.88Z" fill="#E0E0E0"/>
<path d="M480.352 104.56H390.553V339.226H480.352V104.56Z" fill="#F0F0F0"/>
<path d="M440.326 99.0509H433.644V344.735H440.326V99.0509Z" fill="#E0E0E0"/>
<path d="M251.937 344.735L251.937 99.0509H151.071V344.735H251.937Z" fill="#E0E0E0"/>
<path d="M246.409 104.56H156.61V339.226H246.409V104.56Z" fill="#F0F0F0"/>
<path d="M206.382 99.0509H199.7V344.735H206.382V99.0509Z" fill="#E0E0E0"/>
<path d="M492.751 388.387H292.119C290.394 388.384 288.742 387.702 287.522 386.489C286.303 385.276 285.617 383.633 285.614 381.918V91.2677C285.614 89.5519 286.299 87.9063 287.519 86.6931C288.739 85.4798 290.394 84.7982 292.119 84.7982H492.751C494.476 84.7982 496.131 85.4798 497.351 86.6931C498.571 87.9063 499.256 89.5519 499.256 91.2677V381.918C499.253 383.633 498.567 385.276 497.347 386.489C496.128 387.702 494.475 388.384 492.751 388.387ZM292.119 85.0742C290.467 85.0742 288.883 85.7267 287.715 86.8882C286.548 88.0497 285.892 89.6251 285.892 91.2677V381.918C285.892 383.56 286.548 385.136 287.715 386.297C288.883 387.459 290.467 388.111 292.119 388.111H492.751C494.403 388.111 495.987 387.459 497.154 386.297C498.322 385.136 498.978 383.56 498.978 381.918V91.2677C498.978 89.6251 498.322 88.0497 497.154 86.8882C495.987 85.7267 494.403 85.0742 492.751 85.0742H292.119Z" fill="#E0E0E0"/>
<path d="M261.394 388.387H60.7725C59.0464 388.387 57.3907 387.706 56.1691 386.493C54.9475 385.28 54.2597 383.635 54.2568 381.918V91.2677C54.2568 90.4172 54.4254 89.575 54.753 88.7894C55.0806 88.0037 55.5607 87.2901 56.1659 86.6892C56.7711 86.0883 57.4894 85.612 58.2799 85.2875C59.0703 84.963 59.9174 84.7968 60.7725 84.7982H261.394C263.119 84.7982 264.774 85.4798 265.993 86.6931C267.213 87.9063 267.899 89.5519 267.899 91.2677V381.918C267.899 382.767 267.73 383.609 267.403 384.393C267.076 385.178 266.597 385.892 265.993 386.492C265.389 387.093 264.672 387.57 263.883 387.895C263.094 388.22 262.248 388.387 261.394 388.387ZM60.7725 85.0742C59.12 85.0742 57.5349 85.7264 56.3653 86.8876C55.1958 88.0488 54.5372 89.6241 54.5343 91.2677V381.918C54.5372 383.561 55.1958 385.137 56.3653 386.298C57.5349 387.459 59.12 388.111 60.7725 388.111H261.394C262.212 388.111 263.021 387.951 263.777 387.64C264.532 387.328 265.219 386.872 265.797 386.297C266.375 385.722 266.834 385.039 267.147 384.288C267.46 383.536 267.621 382.731 267.621 381.918V91.2677C267.621 90.4543 267.46 89.649 267.147 88.8975C266.834 88.1461 266.375 87.4634 265.797 86.8882C265.219 86.3131 264.532 85.8569 263.777 85.5457C263.021 85.2344 262.212 85.0742 261.394 85.0742H60.7725Z" fill="#E0E0E0"/>
<path d="M366.189 131.508L362.093 145.717H351.071L346.975 131.508H366.189Z" fill="#E6E6E6"/>
<path d="M356.832 122.71C356.832 122.71 346.842 118.018 346.742 110.058C346.742 110.058 356.31 113.789 356.832 122.71Z" fill="#E0E0E0"/>
<path d="M356.587 128.561C356.587 128.561 366.822 124.343 367.255 116.417C367.255 116.384 357.575 119.674 356.587 128.561Z" fill="#E0E0E0"/>
<path d="M354.756 114.286C354.756 114.286 363.969 108.148 362.815 100.265C362.815 100.265 353.968 105.388 354.756 114.286Z" fill="#E0E0E0"/>
<path d="M356.576 132.193L355.466 131.961C358.33 118.327 349.705 100.056 349.617 99.8678L350.638 99.3821C351.015 100.144 359.529 118.183 356.576 132.193Z" fill="#E0E0E0"/>
<path d="M338.328 145.772H316.128L311.954 124.034H334.154L338.328 145.772Z" fill="#F0F0F0"/>
<path d="M334.776 142.858H318.559L317.604 137.956L315.495 126.949H331.723L332.756 132.359L334.776 142.858Z" fill="#FAFAFA"/>
<path d="M322.455 132.778C323.368 132.778 324.109 132.042 324.109 131.133C324.109 130.225 323.368 129.488 322.455 129.488C321.542 129.488 320.801 130.225 320.801 131.133C320.801 132.042 321.542 132.778 322.455 132.778Z" fill="#E0E0E0"/>
<path d="M334.776 142.858H318.57L317.615 137.956C318.007 137.321 318.546 136.789 319.187 136.405C319.829 136.021 320.553 135.795 321.301 135.748C324.631 135.748 327.539 138.099 329.304 134.953C330.166 133.768 331.376 132.878 332.767 132.403L334.776 142.858Z" fill="#E0E0E0"/>
<path d="M311.954 124.034L306.071 145.728H310.467H316.128L311.954 124.034Z" fill="#E0E0E0"/>
<path d="M113.363 151.867C124.757 147.076 130.088 134.004 125.271 122.671C120.453 111.338 107.31 106.036 95.9158 110.828C84.5214 115.62 79.1901 128.691 84.008 140.024C88.8258 151.357 101.968 156.659 113.363 151.867Z" fill="#E0E0E0"/>
<path d="M112.539 150.302C123.067 145.965 128.067 133.959 123.706 123.487C119.345 113.015 107.274 108.042 96.7452 112.38C86.2164 116.718 81.2165 128.723 85.5777 139.195C89.9389 149.667 102.01 154.64 112.539 150.302Z" fill="#FAFAFA"/>
<path d="M104.706 112.685H103.929V116.969H104.706V112.685Z" fill="#E0E0E0"/>
<path d="M104.706 145.618H103.929V149.901H104.706V145.618Z" fill="#E0E0E0"/>
<path d="M89.91 130.912H85.6032V131.685H89.91V130.912Z" fill="#E0E0E0"/>
<path d="M123.021 130.912H118.714V131.685H123.021V130.912Z" fill="#E0E0E0"/>
<path d="M117.269 117.856L114.224 120.885L114.773 121.432L117.818 118.402L117.269 117.856Z" fill="#E0E0E0"/>
<path d="M93.8535 141.157L90.8087 144.186L91.3582 144.733L94.4031 141.703L93.8535 141.157Z" fill="#E0E0E0"/>
<path d="M91.3626 117.852L90.8133 118.398L93.8592 121.426L94.4085 120.88L91.3626 117.852Z" fill="#E0E0E0"/>
<path d="M114.773 141.159L114.223 141.706L117.268 144.735L117.818 144.189L114.773 141.159Z" fill="#E0E0E0"/>
<path d="M104.166 130.784L103.922 131.401L111.214 134.256L111.458 133.64L104.166 130.784Z" fill="#E0E0E0"/>
<path d="M104.64 131.619H92.6073V130.968H103.985V121.672H104.64V131.619Z" fill="#E0E0E0"/>
<path d="M555 455.808H0V456.084H555V455.808Z" fill="#E0E0E0"/>
<path d="M282.728 500.896C414.58 500.896 521.467 497.846 521.467 494.084C521.467 490.322 414.58 487.272 282.728 487.272C150.876 487.272 43.9893 490.322 43.9893 494.084C43.9893 497.846 150.876 500.896 282.728 500.896Z" fill="#F5F5F5"/>
<path d="M78.1329 268.371C74.945 270.307 72.3817 273.111 70.7469 276.451C69.1121 279.791 68.4742 283.527 68.9088 287.217C71.373 306.868 77.6112 354.053 81.6405 361.185C86.7354 370.215 156.976 364.806 160.628 356.581C164.28 348.356 154.579 268.261 148.418 261.725C143.368 256.26 100.155 254.649 78.1329 268.371Z" fill="black"/>
<g opacity="0.6">
<path d="M78.1329 268.371C74.945 270.307 72.3817 273.111 70.7469 276.451C69.1121 279.791 68.4742 283.527 68.9088 287.217C71.373 306.868 77.6112 354.053 81.6405 361.185C86.7354 370.215 156.976 364.806 160.628 356.581C164.28 348.356 154.579 268.261 148.418 261.725C143.368 256.26 100.155 254.649 78.1329 268.371Z" fill="white"/>
</g>
<g opacity="0.5">
<path d="M86.3802 363.006C86.2914 362.465 76.923 308.745 75.8907 289.149C74.7807 269.199 84.9483 264.662 85.3701 264.485L85.8141 265.501C85.7142 265.501 75.9795 269.917 77.0007 289.093C78.033 308.623 87.3792 362.278 87.4791 362.819L86.3802 363.006Z" fill="white"/>
</g>
<path d="M127.728 391.236H121.512V479.048H127.728V391.236Z" fill="black"/>
<g opacity="0.5">
<path d="M127.728 391.236H121.512V479.048H127.728V391.236Z" fill="white"/>
</g>
<path d="M80.9523 480.383H75.9795V477.877C75.9795 473.485 77.7337 469.273 80.8562 466.168C83.9786 463.062 88.2136 461.317 92.6295 461.317H118.859V466.263H92.6406C89.5405 466.269 86.5693 467.497 84.3783 469.679C82.1873 471.86 80.9552 474.816 80.9523 477.899V480.383Z" fill="black"/>
<g opacity="0.6">
<path d="M80.9523 480.383H75.9795V477.877C75.9795 473.485 77.7337 469.273 80.8562 466.168C83.9786 463.062 88.2136 461.317 92.6295 461.317H118.859V466.263H92.6406C89.5405 466.269 86.5693 467.497 84.3783 469.679C82.1873 471.86 80.9552 474.816 80.9523 477.899V480.383Z" fill="white"/>
</g>
<path d="M86.7245 487.164C87.8004 482.631 84.9773 478.088 80.4189 477.018C75.8606 475.948 71.2931 478.756 70.2173 483.289C69.1414 487.823 71.9645 492.366 76.5229 493.436C81.0812 494.506 85.6486 491.698 86.7245 487.164Z" fill="black"/>
<g opacity="0.4">
<path d="M86.7245 487.164C87.8004 482.631 84.9773 478.088 80.4189 477.018C75.8606 475.948 71.2931 478.756 70.2173 483.289C69.1414 487.823 71.9645 492.366 76.5229 493.436C81.0812 494.506 85.6486 491.698 86.7245 487.164Z" fill="white"/>
</g>
<g opacity="0.5">
<path d="M78.4659 489.503C80.8261 489.503 82.7394 487.6 82.7394 485.252C82.7394 482.905 80.8261 481.002 78.4659 481.002C76.1057 481.002 74.1924 482.905 74.1924 485.252C74.1924 487.6 76.1057 489.503 78.4659 489.503Z" fill="white"/>
</g>
<path d="M130.615 491.222C133.926 487.928 133.926 482.587 130.615 479.293C127.303 475.999 121.933 475.999 118.622 479.293C115.31 482.587 115.31 487.928 118.622 491.222C121.933 494.515 127.303 494.515 130.615 491.222Z" fill="black"/>
<g opacity="0.4">
<path d="M130.615 491.222C133.926 487.928 133.926 482.587 130.615 479.293C127.303 476 121.933 476 118.622 479.293C115.31 482.587 115.31 487.928 118.622 491.222C121.933 494.516 127.303 494.516 130.615 491.222Z" fill="white"/>
</g>
<g opacity="0.5">
<path d="M124.62 489.503C126.98 489.503 128.893 487.6 128.893 485.252C128.893 482.905 126.98 481.002 124.62 481.002C122.26 481.002 120.346 482.905 120.346 485.252C120.346 487.6 122.26 489.503 124.62 489.503Z" fill="white"/>
</g>
<path d="M172.616 480.384H167.61V477.877C167.607 474.794 166.375 471.838 164.184 469.657C161.993 467.475 159.022 466.247 155.922 466.241H129.726V461.295H155.955C160.371 461.295 164.606 463.04 167.728 466.146C170.851 469.251 172.605 473.463 172.605 477.855L172.616 480.384Z" fill="black"/>
<g opacity="0.6">
<path d="M172.616 480.384H167.61V477.877C167.607 474.794 166.375 471.838 164.184 469.657C161.993 467.475 159.022 466.247 155.922 466.241H129.726V461.295H155.955C160.371 461.295 164.606 463.04 167.728 466.146C170.851 469.251 172.605 473.463 172.605 477.855L172.616 480.384Z" fill="white"/>
</g>
<path d="M176.239 491.119C179.477 487.753 179.358 482.414 175.974 479.194C172.589 475.974 167.221 476.092 163.983 479.458C160.746 482.824 160.865 488.164 164.249 491.384C167.634 494.604 173.002 494.485 176.239 491.119Z" fill="black"/>
<g opacity="0.4">
<path d="M176.239 491.119C179.477 487.753 179.358 482.414 175.974 479.194C172.589 475.974 167.221 476.092 163.983 479.458C160.746 482.824 160.865 488.164 164.249 491.384C167.634 494.604 173.002 494.485 176.239 491.119Z" fill="white"/>
</g>
<g opacity="0.5">
<path d="M165.856 485.252C165.856 486.093 166.107 486.915 166.576 487.614C167.046 488.312 167.713 488.857 168.494 489.179C169.275 489.501 170.134 489.585 170.963 489.421C171.792 489.257 172.554 488.852 173.152 488.258C173.749 487.663 174.156 486.906 174.321 486.081C174.486 485.257 174.401 484.402 174.078 483.626C173.754 482.849 173.207 482.185 172.504 481.718C171.801 481.251 170.975 481.002 170.13 481.002C168.996 481.002 167.909 481.45 167.108 482.247C166.306 483.044 165.856 484.125 165.856 485.252Z" fill="white"/>
</g>
<path d="M130.369 456.007H118.87V472.777H130.369V456.007Z" fill="black"/>
<g opacity="0.6">
<path d="M130.369 456.007H118.87V472.777H130.369V456.007Z" fill="white"/>
</g>
<path d="M130.369 390.297H118.87V407.067H130.369V390.297Z" fill="black"/>
<g opacity="0.6">
<path d="M130.369 390.297H118.87V407.067H130.369V390.297Z" fill="white"/>
</g>
<path d="M164.646 361.527C164.646 361.527 168.853 362.189 179.431 363.967C182.961 364.563 186.413 365.126 189.421 365.601C192.355 366.066 195.025 367.557 196.952 369.805C198.879 372.053 199.936 374.912 199.933 377.866C199.935 379.498 199.613 381.114 198.986 382.622C198.359 384.13 197.439 385.501 196.28 386.655C195.12 387.81 193.743 388.726 192.227 389.351C190.711 389.975 189.087 390.297 187.446 390.297H101.743C97.5157 390.325 93.3971 388.968 90.0227 386.436C86.6483 383.904 84.2058 380.338 83.0724 376.287C81.8697 371.464 81.4093 366.487 81.7071 361.527H164.646Z" fill="black"/>
<g opacity="0.5">
<path d="M164.646 361.527C164.646 361.527 168.853 362.189 179.431 363.967C182.961 364.563 186.413 365.126 189.421 365.601C192.355 366.066 195.025 367.557 196.952 369.805C198.879 372.053 199.936 374.912 199.933 377.866C199.935 379.498 199.613 381.114 198.986 382.622C198.359 384.13 197.439 385.501 196.28 386.655C195.12 387.81 193.743 388.726 192.227 389.351C190.711 389.975 189.087 390.297 187.446 390.297H101.743C97.5157 390.325 93.3971 388.968 90.0227 386.436C86.6483 383.904 84.2058 380.338 83.0724 376.287C81.8697 371.464 81.4093 366.487 81.7071 361.527H164.646Z" fill="white"/>
</g>
<path d="M147.042 265.987C151.426 272.478 155.666 279.312 159.84 285.936C161.971 289.248 163.991 292.56 166.156 295.74C167.199 297.34 168.265 298.897 169.319 300.387C170.374 301.878 171.439 303.302 172.383 304.45L173.493 305.731C173.493 305.731 173.56 305.83 173.493 305.808C173.426 305.786 173.282 305.731 173.282 305.753C173.309 305.782 173.332 305.816 173.349 305.852L173.671 306.029C174.326 306.361 175.005 306.645 175.702 306.879L178.244 307.729C181.796 308.833 185.67 309.76 189.521 310.754C197.291 312.664 205.228 314.496 213.12 316.616L212.565 324.035C204.294 324.874 195.979 325.206 187.668 325.029C183.461 325.029 179.287 324.742 174.88 324.267C173.77 324.145 172.66 324.002 171.473 323.792C170.184 323.583 168.909 323.299 167.654 322.942L166.544 322.6C166.1 322.445 165.667 322.269 165.235 322.081C164.702 321.845 164.183 321.579 163.681 321.286C163.203 321.01 162.826 320.767 162.448 320.513C161.234 319.674 160.073 318.76 158.974 317.775C157.226 316.189 155.559 314.516 153.979 312.763C152.47 311.107 151.071 309.451 149.706 307.795C147.053 304.483 144.466 301.171 142.08 297.727C137.243 290.988 132.839 283.953 128.893 276.662L147.042 265.987Z" fill="#79BD8F"/>
<path opacity="0.2" d="M148.429 273.626L143.49 272.809C143.49 272.809 141.025 284.534 139.05 293.399C140.038 294.845 141.025 296.292 142.047 297.738C144.433 301.16 147.019 304.461 149.672 307.806C151.038 309.462 152.436 311.118 153.946 312.774C155.526 314.527 157.193 316.2 158.941 317.786C160.04 318.771 161.2 319.685 162.415 320.524C162.793 320.778 163.17 321.021 163.647 321.297C164.15 321.591 164.669 321.856 165.201 322.092C165.634 322.28 166.067 322.456 166.511 322.611L167.621 322.953C168.876 323.31 170.151 323.594 171.439 323.803C172.605 324.013 173.737 324.157 174.847 324.278C179.187 324.742 183.305 324.985 187.435 325.04H190.298C186.247 324.874 173.859 323.748 164.768 316.108C153.679 306.912 148.429 273.626 148.429 273.626Z" fill="black"/>
<path d="M117.172 256.25C117.172 256.25 94.9716 258.458 91.8858 269.928C89.7657 277.976 90.3984 325.128 105.772 353.633C110.123 361.693 166.911 347.826 164.691 342.461C158.464 327.413 143.845 291.511 148.429 273.626C151.648 261.096 127.728 256.713 127.728 256.713L117.172 256.25Z" fill="#79BD8F"/>
<path opacity="0.2" d="M111.2 284.247C111.2 284.247 108.835 295.508 113.009 301.624C117.183 307.74 126.462 310.357 131.879 311.074C137.296 311.792 106.76 311.792 106.76 311.792L102.042 290.142L111.2 284.247Z" fill="black"/>
<g opacity="0.2">
<path d="M108.691 350.851C104.251 344.956 97.2915 311.571 96.9918 310.147L97.5357 310.036C97.6023 310.379 104.784 344.724 109.146 350.52L108.691 350.851Z" fill="white"/>
</g>
<g opacity="0.2">
<path d="M94.8717 321.065C94.8717 321.065 98.79 333.353 114.175 334.313C129.559 335.274 158.686 327.115 158.686 327.115L157.953 324.907L94.8717 321.065Z" fill="black"/>
</g>
<path d="M121.989 274.896L125.319 325.536L134.599 333.474L139.349 322.026C139.349 322.026 128.56 291.213 125.763 272.832L121.989 274.896Z" fill="#263238"/>
<path d="M137.851 215.589C137.851 215.589 141.736 218.46 138.406 224.763L133.855 215.435L137.851 215.589Z" fill="#263238"/>
<path d="M109.39 227.656C109.39 227.656 104.495 223.317 104.95 221.473C105.45 219.265 107.97 219.917 107.97 219.917C107.97 219.917 106.682 211.317 108.736 209.396C110.423 207.806 112.965 210.5 112.965 210.5C112.965 210.5 118.592 202.198 122.089 202.341C125.585 202.485 123.743 205.377 123.743 205.377C123.743 205.377 132.623 198.963 135.697 200.188C138.772 201.414 136.985 204.737 136.985 204.737C136.985 204.737 143.534 198.985 145.343 202.529C147.153 206.073 139.338 211.582 139.338 211.582C139.338 211.582 143.778 212.553 141.825 215.435C141.35 216.23 140.599 216.825 139.714 217.108C138.829 217.391 137.87 217.341 137.018 216.969L109.39 227.656Z" fill="#263238"/>
<path d="M128.205 259.528C127.228 260.82 125.275 262.366 121.39 262.84C116.494 263.492 113.52 260.378 111.988 258.734C113.352 251.201 113.427 243.493 112.21 235.936L127.861 248.908C126.784 252.684 126.229 256.57 128.205 259.528Z" fill="#FF8B7B"/>
<g opacity="0.2">
<path d="M118.592 241.279L127.861 248.952C127.429 250.341 127.132 251.768 126.973 253.213C123.432 252.65 119.047 249.78 117.715 246.126C116.883 243.851 117.715 241.522 118.592 241.279Z" fill="black"/>
</g>
<path d="M109.612 224.256C109.429 221.837 109.871 219.413 110.894 217.212C111.918 215.011 113.491 213.107 115.462 211.68C117.434 210.253 119.739 209.351 122.16 209.06C124.58 208.768 127.036 209.096 129.293 210.014C139.549 214.176 140.97 229.632 138.75 238.95C136.275 249.338 123.365 254.141 115.44 246.115C110.134 240.793 110.278 234.666 109.612 224.256Z" fill="#FF8B7B"/>
<path d="M127.983 230.294C127.897 230.294 127.814 230.268 127.744 230.218C127.675 230.169 127.622 230.099 127.594 230.018C127.517 229.716 127.365 229.437 127.152 229.207C126.938 228.978 126.671 228.805 126.373 228.705C125.868 228.599 125.341 228.686 124.897 228.948C124.844 229.02 124.769 229.074 124.683 229.1C124.597 229.125 124.504 229.122 124.42 229.091C124.316 229.054 124.231 228.977 124.183 228.878C124.136 228.779 124.129 228.665 124.165 228.561C124.309 228.164 125.275 227.832 125.941 227.832C126.506 227.826 127.056 228.012 127.5 228.359C127.945 228.706 128.256 229.195 128.383 229.742C128.418 229.846 128.412 229.96 128.364 230.059C128.316 230.158 128.231 230.235 128.127 230.272L127.983 230.294Z" fill="#263238"/>
<path d="M134.499 230.46H134.399C134.346 230.447 134.297 230.424 134.253 230.392C134.21 230.36 134.173 230.32 134.145 230.274C134.117 230.227 134.099 230.176 134.091 230.123C134.083 230.07 134.086 230.015 134.099 229.963C134.476 228.429 135.442 228.131 135.986 228.098C136.53 228.064 137.596 228.396 137.751 228.771C137.791 228.873 137.789 228.988 137.746 229.089C137.702 229.19 137.62 229.27 137.518 229.312C137.433 229.344 137.34 229.348 137.252 229.324C137.165 229.3 137.087 229.25 137.029 229.179C136.847 229.064 136.643 228.985 136.429 228.949C136.216 228.913 135.997 228.92 135.786 228.97C135.546 229.074 135.338 229.239 135.183 229.448C135.027 229.657 134.929 229.903 134.898 230.162C134.876 230.249 134.824 230.327 134.751 230.381C134.678 230.435 134.589 230.463 134.499 230.46Z" fill="#263238"/>
<path d="M135.054 238.806C134.749 239.585 134.253 240.276 133.612 240.816C132.97 241.356 132.203 241.728 131.38 241.897C130.985 241.976 130.582 241.999 130.181 241.964C129.359 241.962 128.553 241.74 127.847 241.32C127.142 240.9 126.564 240.299 126.174 239.579C125.764 238.828 125.496 238.009 125.386 237.161C125.376 237.08 125.388 236.999 125.42 236.924C125.452 236.849 125.503 236.783 125.567 236.733C125.632 236.683 125.708 236.651 125.789 236.639C125.87 236.627 125.953 236.636 126.029 236.664C126.029 236.664 126.029 236.664 126.096 236.664C128.813 237.677 131.698 238.171 134.599 238.122C134.717 238.122 134.832 238.165 134.92 238.243C135.005 238.307 135.065 238.398 135.089 238.501C135.114 238.604 135.101 238.712 135.054 238.806Z" fill="#263238"/>
<path d="M131.38 241.897C130.985 241.976 130.582 241.999 130.181 241.964C129.359 241.962 128.553 241.74 127.847 241.32C127.142 240.9 126.564 240.299 126.174 239.579C127.431 239.4 128.713 239.521 129.914 239.932C130.342 240.054 130.717 240.312 130.982 240.668C131.247 241.023 131.387 241.455 131.38 241.897Z" fill="#FF5652"/>
<path d="M134.92 238.276C134.84 238.448 134.732 238.605 134.599 238.74C133.755 239.601 126.984 238.199 126.496 237.813C126.223 237.511 126.079 237.114 126.096 236.709C128.813 237.721 131.698 238.216 134.599 238.166C134.716 238.163 134.83 238.202 134.92 238.276Z" fill="white"/>
<path d="M109.435 226.541C109.435 227.027 111.733 231.045 114.574 230.228C117.416 229.411 115.684 221.716 115.684 221.716C115.684 221.716 121.234 222.246 119.591 217.609C120.917 218.431 122.487 218.77 124.036 218.569C125.584 218.367 127.014 217.638 128.083 216.505C128.083 216.505 134.654 220.535 137.84 218.106C137.84 218.106 138.217 208.866 127.694 206.481C121.767 205.189 108.591 209.76 109.435 226.541Z" fill="#263238"/>
<path d="M105.139 232.944C105.881 235.455 107.588 237.573 109.89 238.839C112.976 240.473 115.273 237.912 115.04 234.633C114.841 231.674 112.987 227.258 109.59 226.971C106.194 226.684 104.218 229.864 105.15 232.955" fill="#FF8B7B"/>
<path d="M137.973 225.47C137.9 225.459 137.832 225.43 137.773 225.386C137.715 225.341 137.669 225.283 137.64 225.216C137.511 224.954 137.329 224.72 137.105 224.53C136.882 224.341 136.622 224.198 136.341 224.112C135.766 223.996 135.169 224.086 134.654 224.366C134.56 224.422 134.447 224.438 134.341 224.411C134.235 224.384 134.144 224.316 134.088 224.222C134.032 224.129 134.016 224.017 134.043 223.911C134.07 223.806 134.138 223.715 134.232 223.659C134.936 223.253 135.769 223.126 136.563 223.306C136.949 223.423 137.307 223.616 137.616 223.874C137.925 224.132 138.179 224.45 138.361 224.808C138.389 224.855 138.407 224.907 138.414 224.96C138.421 225.014 138.417 225.069 138.403 225.122C138.388 225.174 138.363 225.223 138.33 225.266C138.296 225.309 138.254 225.344 138.206 225.371C138.144 225.432 138.061 225.468 137.973 225.47Z" fill="#263238"/>
<path d="M123.443 225.801C123.384 225.811 123.324 225.811 123.265 225.801C123.216 225.778 123.172 225.745 123.136 225.704C123.1 225.663 123.072 225.616 123.055 225.564C123.037 225.513 123.03 225.459 123.034 225.405C123.038 225.35 123.052 225.298 123.077 225.249C123.443 224.526 124.069 223.966 124.831 223.681C125.219 223.566 125.628 223.53 126.03 223.578C126.433 223.625 126.822 223.754 127.173 223.957C127.255 224.016 127.313 224.101 127.337 224.199C127.361 224.296 127.349 224.399 127.303 224.489C127.258 224.578 127.181 224.648 127.088 224.686C126.995 224.725 126.891 224.729 126.795 224.697C126.542 224.548 126.261 224.451 125.97 224.412C125.678 224.372 125.381 224.39 125.097 224.465C124.555 224.674 124.104 225.065 123.82 225.569C123.784 225.638 123.73 225.696 123.664 225.737C123.597 225.778 123.521 225.8 123.443 225.801Z" fill="#263238"/>
<path d="M126.218 232.856C125.167 232.848 124.162 232.426 123.424 231.682C122.686 230.937 122.276 229.932 122.283 228.887C122.291 227.842 122.715 226.842 123.463 226.108C124.212 225.374 125.223 224.966 126.274 224.973C126.794 224.979 127.308 225.087 127.787 225.292C128.265 225.497 128.698 225.794 129.06 226.165C129.603 226.721 129.97 227.423 130.114 228.185C130.258 228.947 130.174 229.734 129.87 230.448C129.567 231.162 129.059 231.771 128.409 232.2C127.76 232.628 126.997 232.856 126.218 232.856ZM126.274 225.525C125.37 225.525 124.503 225.882 123.864 226.518C123.225 227.153 122.866 228.016 122.866 228.914C122.866 229.813 123.225 230.675 123.864 231.311C124.503 231.947 125.37 232.304 126.274 232.304C127.164 232.304 128.019 231.957 128.656 231.338C129.293 230.719 129.661 229.877 129.681 228.992C129.693 228.098 129.35 227.237 128.726 226.594C128.103 225.951 127.249 225.579 126.351 225.558L126.274 225.525Z" fill="white"/>
<path d="M136.463 232.315C135.943 232.311 135.428 232.203 134.949 231.998C134.471 231.794 134.038 231.496 133.677 231.122C133.151 230.566 132.798 229.869 132.664 229.116C132.529 228.364 132.618 227.589 132.92 226.886C133.222 226.183 133.723 225.583 134.362 225.159C135.001 224.735 135.751 224.505 136.519 224.498C137.04 224.502 137.555 224.61 138.033 224.815C138.511 225.019 138.944 225.317 139.305 225.691C140.032 226.439 140.431 227.443 140.415 228.484C140.408 229.001 140.298 229.512 140.093 229.988C139.887 230.463 139.589 230.894 139.216 231.255C138.473 231.952 137.485 232.332 136.463 232.315ZM136.463 224.995C135.904 224.993 135.352 225.128 134.857 225.388C134.363 225.649 133.94 226.026 133.627 226.487C133.314 226.949 133.119 227.48 133.061 228.033C133.003 228.587 133.083 229.146 133.294 229.662C133.505 230.177 133.84 230.633 134.271 230.989C134.701 231.346 135.212 231.591 135.76 231.704C136.309 231.816 136.876 231.793 137.413 231.636C137.95 231.479 138.44 231.192 138.839 230.802C139.162 230.496 139.42 230.128 139.597 229.72C139.775 229.312 139.868 228.873 139.871 228.429C139.886 227.535 139.544 226.671 138.92 226.027C138.295 225.384 137.44 225.013 136.541 224.995H136.463Z" fill="white"/>
<path d="M131.324 227.954C132.463 229.73 133.829 231.351 135.387 232.778C137.529 234.556 132.057 235.803 132.057 235.803L131.324 227.954Z" fill="#FF5652"/>
<path d="M132.778 228.605C132.731 228.621 132.681 228.621 132.634 228.605C132.266 228.336 131.823 228.186 131.366 228.176C130.909 228.166 130.46 228.297 130.081 228.55C130.023 228.597 129.95 228.619 129.876 228.612C129.802 228.605 129.734 228.569 129.687 228.511C129.64 228.454 129.617 228.381 129.625 228.307C129.632 228.234 129.668 228.166 129.726 228.12C130.195 227.791 130.755 227.614 131.33 227.614C131.904 227.614 132.464 227.791 132.934 228.12C132.964 228.139 132.99 228.163 133.011 228.193C133.032 228.222 133.046 228.256 133.053 228.291C133.06 228.326 133.06 228.362 133.053 228.397C133.046 228.432 133.032 228.465 133.011 228.495C132.984 228.531 132.949 228.559 132.908 228.579C132.868 228.598 132.823 228.607 132.778 228.605Z" fill="white"/>
<path d="M122.599 228.462C122.535 228.459 122.472 228.436 122.422 228.396C121.208 227.441 119.71 226.912 118.162 226.892C116.614 226.872 115.103 227.362 113.864 228.285C113.834 228.306 113.8 228.321 113.764 228.33C113.729 228.338 113.692 228.339 113.656 228.333C113.62 228.326 113.585 228.313 113.554 228.294C113.523 228.274 113.496 228.249 113.475 228.219C113.435 228.158 113.42 228.084 113.432 228.013C113.444 227.941 113.484 227.876 113.542 227.832C114.888 226.855 116.517 226.341 118.184 226.367C119.85 226.393 121.462 226.957 122.777 227.976C122.804 228.001 122.825 228.031 122.839 228.064C122.854 228.097 122.861 228.133 122.861 228.169C122.861 228.205 122.854 228.241 122.839 228.274C122.825 228.308 122.804 228.338 122.777 228.362C122.733 228.417 122.669 228.452 122.599 228.462Z" fill="white"/>
<path d="M112.31 254.726C112.31 254.726 106.282 254.958 104.64 260.445L117.86 274.664L121.39 262.896C121.39 262.896 113.22 260.025 112.31 254.726Z" fill="#59CE8F"/>
<path d="M117.46 274.51H117.327C110.19 270.833 104.751 261.041 104.695 260.941C104.663 260.877 104.656 260.802 104.676 260.732C104.697 260.662 104.743 260.603 104.806 260.566C104.871 260.534 104.947 260.527 105.017 260.547C105.087 260.568 105.146 260.614 105.184 260.676C105.184 260.776 110.6 270.425 117.582 274.024C117.636 274.053 117.679 274.098 117.704 274.153C117.729 274.209 117.735 274.271 117.721 274.33C117.707 274.389 117.674 274.442 117.627 274.48C117.58 274.519 117.521 274.541 117.46 274.543V274.51Z" fill="white"/>
<path d="M128.76 271.584C128.717 271.584 128.674 271.574 128.636 271.555C128.597 271.536 128.564 271.508 128.538 271.474C128.487 271.422 128.459 271.353 128.459 271.28C128.459 271.208 128.487 271.139 128.538 271.087C131.868 268.504 134.665 259.705 134.698 259.617C134.719 259.546 134.767 259.487 134.831 259.452C134.896 259.417 134.972 259.409 135.043 259.429C135.114 259.452 135.174 259.502 135.209 259.568C135.244 259.634 135.252 259.711 135.231 259.782C135.109 260.147 132.401 268.835 128.871 271.529C128.839 271.555 128.801 271.574 128.76 271.584Z" fill="white"/>
<path d="M126.695 255.72C126.695 255.72 125.252 261.129 121.39 262.896L128.238 270.458C128.238 270.458 134.51 262.377 133.866 258.314C132.977 257.329 131.858 256.577 130.607 256.125C129.356 255.672 128.013 255.533 126.695 255.72Z" fill="#59CE8F"/>
<path d="M121.39 262.896L117.86 274.664L124.42 279.743L128.238 270.458L121.39 262.896Z" fill="#263238"/>
<path d="M135.697 347.352C135.697 347.352 123.021 375.934 150.216 383.143C168.809 388.078 195.893 375.658 207.881 379.588C207.881 379.588 202.653 381.421 196.603 401.558C190.554 421.695 178.843 470.547 178.843 470.547L193.273 471.132C193.273 471.132 233.111 381.587 233.888 367.356C234.665 353.125 163.381 342.958 163.381 342.958L135.697 347.352Z" fill="#263238"/>
<path d="M211.333 368.228C210.556 382.437 162.016 471.033 162.016 471.033L148.929 470.69H148.351L144.067 470.58C144.067 470.58 158.73 424.157 164.757 404.064C170.241 385.815 177.267 383.783 178.532 383.563C162.382 385.252 142.435 387.327 120.646 385.042C92.463 382.083 104.684 351.436 104.684 351.436L109.524 350.807L110.134 350.73L135.664 347.418C135.664 347.418 212.099 354.02 211.333 368.228Z" fill="#263238"/>
<g opacity="0.2">
<path d="M112.665 362.322C111.225 362.309 109.792 362.135 108.391 361.803L108.514 361.262C112.887 362.267 116.639 361.759 119.614 359.738C125.164 356.062 126.44 348.544 126.451 348.467L126.995 348.555C126.995 348.643 125.652 356.382 119.924 360.202C117.771 361.611 115.243 362.349 112.665 362.322Z" fill="white"/>
</g>
<g opacity="0.2">
<path d="M184.537 382.426C177.679 391.618 171.948 401.591 167.466 412.134C160.117 429.434 149.806 467.434 148.929 470.646V470.867C148.91 470.926 148.874 470.979 148.824 471.016C148.774 471.054 148.714 471.075 148.651 471.077H148.585C148.515 471.054 148.456 471.007 148.419 470.943C148.383 470.88 148.37 470.806 148.385 470.735V470.646C148.951 468.571 159.485 429.511 166.988 411.891C171.49 401.315 177.239 391.309 184.116 382.083C186.691 378.517 188.389 376.166 188.067 375.051C188.008 374.884 187.91 374.734 187.781 374.613C187.651 374.492 187.494 374.404 187.324 374.355C185.725 373.693 178.444 374.477 169.175 375.459C151.981 377.314 128.438 379.875 116.639 376.133C115.15 375.694 113.767 374.955 112.577 373.961C111.388 372.968 110.416 371.742 109.723 370.359C106.205 363.481 108.747 353.479 109.557 350.719L110.167 350.641C109.49 352.927 106.726 363.293 110.167 370.116C110.828 371.436 111.754 372.607 112.889 373.556C114.023 374.506 115.341 375.214 116.761 375.636C128.449 379.334 151.937 376.795 169.075 374.941C178.766 373.892 185.725 373.141 187.49 373.837C187.753 373.914 187.992 374.055 188.186 374.248C188.38 374.441 188.522 374.679 188.6 374.941C188.955 376.298 187.39 378.473 184.537 382.426Z" fill="white"/>
</g>
<path d="M146.043 470.569L143.767 482.051H153.169L158.497 471.894L146.043 470.569Z" fill="#FF8B7B"/>
<path d="M143.734 479.71C143.734 479.71 141.58 479.379 141.691 482.051C141.802 484.722 139.471 491.159 139.582 493.632H168.442C168.442 493.632 169.375 487.504 164.136 487.317C157.12 487.074 154.734 483.066 154.734 483.066C154.323 480.262 152.303 481.201 149.339 481.499C146.675 481.775 143.734 479.71 143.734 479.71Z" fill="#3F3D56"/>
<path d="M156.277 484.656C155.881 484.717 155.501 484.855 155.16 485.064C154.819 485.272 154.523 485.547 154.29 485.87" fill="black"/>
<path d="M154.29 486.146C154.243 486.161 154.193 486.161 154.146 486.146C154.084 486.106 154.04 486.043 154.023 485.971C154.007 485.899 154.019 485.823 154.057 485.76C154.32 485.405 154.652 485.106 155.034 484.88C155.415 484.655 155.838 484.507 156.277 484.446C156.349 484.44 156.42 484.462 156.476 484.507C156.532 484.553 156.568 484.618 156.577 484.689C156.581 484.725 156.579 484.762 156.569 484.797C156.559 484.833 156.542 484.866 156.52 484.894C156.497 484.923 156.469 484.947 156.436 484.965C156.404 484.983 156.369 484.994 156.332 484.998C155.972 485.053 155.626 485.179 155.315 485.368C155.005 485.558 154.735 485.807 154.523 486.102C154.49 486.127 154.452 486.144 154.412 486.152C154.371 486.159 154.33 486.157 154.29 486.146Z" fill="black"/>
<path d="M157.62 485.274C157.22 485.329 156.836 485.462 156.489 485.667C156.142 485.872 155.839 486.144 155.6 486.467" fill="black"/>
<path d="M155.611 486.743C155.563 486.752 155.514 486.752 155.467 486.743C155.405 486.702 155.361 486.639 155.344 486.567C155.328 486.495 155.34 486.42 155.378 486.356C155.641 486.001 155.973 485.702 156.354 485.476C156.736 485.251 157.158 485.103 157.598 485.042C157.671 485.035 157.745 485.057 157.802 485.104C157.859 485.15 157.896 485.218 157.903 485.291C157.91 485.364 157.888 485.437 157.841 485.494C157.795 485.551 157.727 485.587 157.653 485.594C157.293 485.65 156.948 485.776 156.637 485.966C156.327 486.155 156.057 486.404 155.844 486.698C155.811 486.723 155.773 486.74 155.733 486.748C155.692 486.755 155.651 486.754 155.611 486.743Z" fill="black"/>
<path d="M159.296 486.069C158.898 486.124 158.515 486.258 158.17 486.463C157.825 486.668 157.525 486.939 157.287 487.261" fill="black"/>
<path d="M157.287 487.537C157.24 487.552 157.19 487.552 157.143 487.537C157.081 487.497 157.037 487.434 157.02 487.362C157.004 487.29 157.016 487.214 157.054 487.151C157.317 486.796 157.649 486.497 158.031 486.271C158.412 486.046 158.835 485.898 159.274 485.837C159.347 485.831 159.42 485.852 159.478 485.898C159.535 485.943 159.574 486.008 159.585 486.08C159.589 486.116 159.587 486.153 159.577 486.189C159.567 486.224 159.55 486.257 159.528 486.286C159.505 486.314 159.477 486.338 159.445 486.356C159.412 486.374 159.377 486.385 159.34 486.389C158.98 486.444 158.634 486.57 158.324 486.759C158.013 486.949 157.743 487.198 157.531 487.493C157.497 487.519 157.457 487.536 157.414 487.544C157.372 487.552 157.328 487.549 157.287 487.537Z" fill="black"/>
<path d="M168.232 491.964H139.771C139.698 491.964 139.627 491.935 139.575 491.884C139.523 491.832 139.494 491.762 139.494 491.688C139.494 491.615 139.523 491.545 139.575 491.493C139.627 491.442 139.698 491.412 139.771 491.412H168.232C168.305 491.412 168.376 491.442 168.428 491.493C168.48 491.545 168.509 491.615 168.509 491.688C168.509 491.762 168.48 491.832 168.428 491.884C168.376 491.935 168.305 491.964 168.232 491.964Z" fill="black"/>
<path d="M163.447 475.537H141.159L142.568 468.714H164.846L163.447 475.537Z" fill="#263238"/>
<g opacity="0.3">
<path d="M163.447 475.537H141.159L142.568 468.714H164.846L163.447 475.537Z" fill="white"/>
</g>
<path d="M180.508 470.569L178.721 482.051H188.123L192.13 471.794L180.508 470.569Z" fill="#FF8B7B"/>
<path d="M178.599 479.71C178.599 479.71 176.379 479.379 176.645 482.051C176.912 484.722 174.814 491.159 175.025 493.632H203.885C203.885 493.632 204.551 487.504 199.3 487.317C192.285 487.074 189.721 483.066 189.721 483.066C189.199 480.262 187.213 481.201 184.26 481.499C181.618 481.775 178.599 479.71 178.599 479.71Z" fill="#3F3D56"/>
<path d="M191.353 484.656C190.96 484.709 190.583 484.842 190.245 485.047C189.907 485.252 189.615 485.525 189.388 485.848" fill="black"/>
<path d="M189.388 486.146C189.341 486.161 189.291 486.161 189.244 486.146C189.212 486.128 189.185 486.104 189.163 486.075C189.142 486.046 189.126 486.013 189.118 485.978C189.11 485.943 189.109 485.906 189.115 485.871C189.121 485.835 189.135 485.801 189.155 485.771C189.409 485.406 189.738 485.098 190.121 484.87C190.504 484.641 190.931 484.497 191.375 484.446C191.448 484.442 191.519 484.465 191.576 484.51C191.634 484.554 191.673 484.618 191.686 484.689C191.692 484.762 191.671 484.834 191.625 484.892C191.58 484.949 191.514 484.987 191.442 484.998C191.088 485.051 190.75 485.177 190.448 485.367C190.146 485.557 189.887 485.807 189.688 486.102C189.646 486.135 189.597 486.157 189.544 486.165C189.491 486.173 189.438 486.166 189.388 486.146Z" fill="black"/>
<path d="M192.718 485.274C192.326 485.327 191.948 485.46 191.61 485.666C191.272 485.871 190.98 486.144 190.753 486.467" fill="black"/>
<path d="M190.754 486.743C190.71 486.752 190.664 486.752 190.62 486.743C190.557 486.706 190.511 486.646 190.493 486.575C190.474 486.505 190.484 486.43 190.52 486.367C190.775 486.003 191.105 485.696 191.487 485.468C191.87 485.239 192.297 485.094 192.74 485.042C192.814 485.036 192.886 485.057 192.944 485.103C193.002 485.148 193.04 485.213 193.051 485.285C193.056 485.322 193.053 485.358 193.043 485.394C193.034 485.429 193.017 485.462 192.994 485.491C192.971 485.519 192.943 485.543 192.911 485.561C192.879 485.579 192.844 485.59 192.807 485.594C192.458 485.641 192.123 485.759 191.821 485.939C191.52 486.119 191.258 486.359 191.053 486.643C191.018 486.687 190.971 486.72 190.918 486.737C190.865 486.755 190.808 486.757 190.754 486.743Z" fill="black"/>
<path d="M194.428 486.069C194.035 486.122 193.658 486.255 193.32 486.46C192.981 486.666 192.69 486.938 192.463 487.261" fill="black"/>
<path d="M192.463 487.537C192.416 487.552 192.366 487.552 192.319 487.537C192.257 487.499 192.214 487.438 192.197 487.368C192.181 487.298 192.192 487.224 192.23 487.162C192.478 486.804 192.799 486.501 193.172 486.273C193.545 486.045 193.961 485.897 194.394 485.837C194.467 485.831 194.54 485.852 194.598 485.898C194.656 485.943 194.694 486.008 194.705 486.08C194.712 486.153 194.69 486.225 194.645 486.283C194.599 486.34 194.533 486.378 194.461 486.389C194.108 486.442 193.769 486.568 193.467 486.758C193.165 486.948 192.906 487.198 192.707 487.493C192.672 487.518 192.632 487.534 192.59 487.542C192.548 487.549 192.504 487.548 192.463 487.537Z" fill="black"/>
<path d="M203.596 491.964H175.136C175.062 491.964 174.992 491.935 174.94 491.884C174.888 491.832 174.858 491.762 174.858 491.688C174.858 491.615 174.888 491.545 174.94 491.493C174.992 491.442 175.062 491.412 175.136 491.412H203.596C203.67 491.412 203.74 491.442 203.792 491.493C203.844 491.545 203.874 491.615 203.874 491.688C203.874 491.762 203.844 491.832 203.792 491.884C203.74 491.935 203.67 491.964 203.596 491.964Z" fill="black"/>
<path d="M195.704 475.537H175.846L176.834 468.714H196.692L195.704 475.537Z" fill="#263238"/>
<g opacity="0.3">
<path d="M195.704 475.537H175.846L176.834 468.714H196.692L195.704 475.537Z" fill="white"/>
</g>
<path d="M113.475 278.462L113.031 279.5L112.51 280.769C112.177 281.619 111.832 282.492 111.511 283.364C110.889 285.119 110.278 286.874 109.812 288.619C108.86 291.801 108.29 295.084 108.114 298.4C108.074 299.658 108.167 300.916 108.391 302.154C108.536 303.007 108.809 303.833 109.202 304.605C109.591 305.268 110.094 305.859 110.689 306.349C111.59 307.053 112.603 307.602 113.686 307.972C115.13 308.473 116.616 308.842 118.126 309.076L118.77 309.186L119.569 309.308L121.168 309.54L124.375 309.992C128.66 310.596 132.959 311.184 137.274 311.759C145.887 312.918 154.634 313.967 163.248 315.247L163.459 326.729C154.538 328.106 145.548 328.998 136.53 329.4C132.034 329.599 127.539 329.754 123.021 329.754H117.094H116.095C113.248 329.595 110.425 329.148 107.67 328.418C104.495 327.613 101.458 326.344 98.6568 324.653C97.1207 323.718 95.6785 322.639 94.35 321.43C93.003 320.172 91.7801 318.79 90.6981 317.301C88.6442 314.417 87.1186 311.196 86.1915 307.784C85.3752 304.758 84.939 301.643 84.8928 298.511C84.8526 293.049 85.6002 287.61 87.1128 282.359C87.7881 279.906 88.5883 277.489 89.5104 275.117C89.9655 273.947 90.4428 272.776 90.9645 271.617L91.7859 269.873L92.2188 268.979L92.7516 267.941L113.475 278.462Z" fill="#79BD8F"/>
<g opacity="0.2">
<path d="M105.006 327.689C105.006 327.634 104.851 322.556 101.432 319.453C98.013 316.351 92.1855 318.438 92.1189 318.46L91.9302 317.941C92.1855 317.853 98.1684 315.733 101.798 319.045C105.428 322.357 105.561 327.457 105.561 327.678L105.006 327.689Z" fill="white"/>
</g>
<path d="M185.481 326.784H174.603L163.325 326.265L162.06 318.647C162.06 318.647 172.672 317.731 175.813 318.647C175.813 318.647 183.805 322.489 184.859 323.858C185.167 324.274 185.382 324.749 185.489 325.254C185.596 325.759 185.594 326.28 185.481 326.784Z" fill="#FF8B7B"/>
<path d="M157.254 327.005C157.215 327.004 157.177 326.995 157.142 326.978C157.108 326.961 157.077 326.936 157.054 326.905C154.912 324.455 154.712 316.738 154.712 316.406C154.71 316.371 154.716 316.335 154.729 316.302C154.741 316.268 154.761 316.238 154.786 316.212C154.811 316.186 154.841 316.166 154.874 316.152C154.907 316.138 154.942 316.13 154.978 316.13C155.05 316.13 155.119 316.158 155.171 316.207C155.222 316.257 155.253 316.324 155.256 316.395C155.256 316.473 155.455 324.245 157.476 326.541C157.527 326.595 157.556 326.666 157.556 326.74C157.556 326.814 157.527 326.885 157.476 326.939C157.445 326.964 157.409 326.982 157.371 326.994C157.333 327.005 157.293 327.009 157.254 327.005Z" fill="white"/>
<path d="M155.7 323.052C155.664 323.054 155.628 323.048 155.594 323.036C155.561 323.023 155.53 323.004 155.504 322.979C155.478 322.954 155.458 322.924 155.443 322.892C155.429 322.859 155.422 322.823 155.422 322.787C155.421 322.751 155.426 322.715 155.439 322.681C155.452 322.647 155.471 322.616 155.496 322.589C155.52 322.562 155.55 322.541 155.583 322.526C155.616 322.51 155.652 322.502 155.689 322.5L162.67 322.202C162.707 322.201 162.743 322.207 162.778 322.219C162.812 322.232 162.843 322.251 162.87 322.275C162.897 322.3 162.918 322.33 162.934 322.363C162.949 322.395 162.958 322.431 162.959 322.467C162.962 322.503 162.958 322.539 162.946 322.573C162.935 322.607 162.917 322.638 162.893 322.665C162.869 322.692 162.84 322.714 162.808 322.729C162.775 322.744 162.74 322.753 162.704 322.754L155.711 323.052H155.7Z" fill="white"/>
<path d="M235.253 324.576H223.709L211.744 324.013L210.367 315.998C210.367 315.998 221.623 315.015 224.964 315.998C224.964 315.998 233.444 320.083 234.554 321.518C234.881 321.95 235.112 322.446 235.233 322.973C235.353 323.5 235.36 324.046 235.253 324.576Z" fill="#FF8B7B"/>
<path d="M241.27 261.03C241.27 261.03 240.304 344.934 241.27 367.168C242.28 390.352 248.274 469.84 248.34 469.531H262.681C262.681 469.531 274.57 313.746 275.68 297.362C276.229 287.007 274.771 276.644 271.384 266.837L241.27 261.03Z" fill="#79BD8F"/>
<path d="M306.36 269.95C306.36 269.95 313.431 347.826 314.585 369.995C315.74 392.163 318.836 470.304 318.836 470.304L303.585 469.443C303.585 469.443 276.09 312.675 273.249 296.358C270.407 280.041 273.804 269.862 273.804 269.862L306.36 269.95Z" fill="#79BD8F"/>
<g opacity="0.2">
<path d="M307.947 291.589C306.698 291.634 305.453 291.417 304.294 290.951C303.134 290.485 302.087 289.78 301.221 288.884C296.947 284.402 297.547 276.022 297.569 275.636H298.124C298.124 275.724 297.524 284.126 301.631 288.431C302.484 289.301 303.516 289.977 304.656 290.413C305.796 290.849 307.017 291.036 308.236 290.959V291.511L307.947 291.589Z" fill="white"/>
</g>
<g opacity="0.2">
<path d="M278.122 296.634C277.626 296.627 277.135 296.542 276.668 296.38L276.845 295.861C277.527 296.139 278.285 296.173 278.989 295.958C279.693 295.742 280.301 295.291 280.708 294.68C281.407 293.689 281.769 292.501 281.74 291.29V275.691H282.295V291.29C282.332 292.616 281.943 293.919 281.185 295.011C280.844 295.507 280.387 295.913 279.853 296.196C279.32 296.478 278.726 296.629 278.122 296.634Z" fill="white"/>
</g>
<g opacity="0.2">
<path d="M277.034 274.51H276.479V304.527H277.034V274.51Z" fill="white"/>
</g>
<g opacity="0.2">
<path d="M308.28 470.006C308.217 470.007 308.155 469.985 308.106 469.945C308.057 469.904 308.024 469.848 308.014 469.785L279.154 305.996C279.141 305.924 279.157 305.85 279.199 305.79C279.24 305.73 279.304 305.689 279.376 305.676C279.412 305.669 279.45 305.67 279.486 305.679C279.522 305.687 279.556 305.702 279.586 305.724C279.616 305.746 279.641 305.773 279.661 305.804C279.68 305.836 279.692 305.871 279.698 305.907L308.558 469.686C308.564 469.722 308.563 469.759 308.555 469.795C308.546 469.831 308.531 469.865 308.509 469.895C308.487 469.925 308.46 469.95 308.428 469.969C308.397 469.988 308.361 470.001 308.325 470.006H308.28Z" fill="white"/>
</g>
<path d="M261.294 470.271L260.994 481.896H251.581L249.45 471.507L261.294 470.271Z" fill="#CE7A63"/>
<path d="M261.538 479.533C261.538 479.533 263.758 479.191 263.059 481.896C262.36 484.601 263.248 491.126 262.582 493.632H233.722C233.722 493.632 234.177 487.427 239.449 487.239C246.52 486.986 249.806 482.923 249.806 482.923C250.838 480.085 252.658 481.046 255.555 481.344C258.142 481.62 261.538 479.533 261.538 479.533Z" fill="#263238"/>
<path d="M247.885 484.568C248.252 484.613 248.602 484.747 248.905 484.956C249.209 485.166 249.457 485.445 249.628 485.771" fill="black"/>
<path d="M249.628 486.036C249.576 486.034 249.525 486.018 249.482 485.988C249.439 485.959 249.405 485.918 249.384 485.87C249.232 485.58 249.015 485.33 248.749 485.138C248.483 484.946 248.176 484.819 247.852 484.766C247.817 484.764 247.784 484.754 247.753 484.738C247.722 484.722 247.695 484.7 247.673 484.673C247.651 484.646 247.635 484.615 247.626 484.582C247.617 484.548 247.614 484.514 247.619 484.479C247.63 484.41 247.667 484.348 247.723 484.304C247.778 484.261 247.848 484.241 247.919 484.248C248.332 484.299 248.726 484.451 249.067 484.689C249.408 484.928 249.684 485.246 249.872 485.616C249.898 485.681 249.897 485.753 249.87 485.817C249.843 485.881 249.792 485.932 249.728 485.959L249.628 486.036Z" fill="white"/>
<path d="M246.42 485.164C246.787 485.209 247.137 485.343 247.44 485.552C247.744 485.762 247.992 486.041 248.163 486.367" fill="black"/>
<path d="M248.152 486.632C248.099 486.63 248.049 486.614 248.006 486.584C247.962 486.555 247.928 486.514 247.907 486.467C247.752 486.186 247.533 485.945 247.267 485.765C247 485.585 246.695 485.469 246.376 485.429C246.305 485.42 246.241 485.384 246.197 485.328C246.153 485.272 246.134 485.201 246.143 485.131C246.151 485.06 246.188 484.997 246.244 484.953C246.3 484.91 246.372 484.89 246.442 484.899C246.855 484.953 247.248 485.106 247.588 485.344C247.929 485.583 248.206 485.9 248.396 486.268C248.422 486.332 248.421 486.404 248.394 486.468C248.367 486.532 248.316 486.583 248.252 486.61C248.221 486.628 248.186 486.635 248.152 486.632Z" fill="white"/>
<path d="M244.555 485.97C244.921 486.018 245.27 486.152 245.573 486.362C245.876 486.571 246.125 486.849 246.298 487.173" fill="black"/>
<path d="M246.298 487.438C246.245 487.439 246.193 487.424 246.149 487.394C246.106 487.364 246.072 487.322 246.054 487.273C245.899 486.992 245.679 486.751 245.413 486.571C245.147 486.391 244.841 486.275 244.522 486.235C244.487 486.231 244.453 486.22 244.422 486.202C244.391 486.185 244.364 486.162 244.343 486.134C244.321 486.107 244.305 486.075 244.296 486.041C244.287 486.007 244.284 485.972 244.289 485.937C244.3 485.868 244.337 485.807 244.393 485.765C244.449 485.724 244.519 485.706 244.589 485.716C245.002 485.764 245.396 485.914 245.737 486.151C246.078 486.388 246.354 486.705 246.542 487.074C246.568 487.138 246.567 487.21 246.54 487.274C246.513 487.338 246.462 487.389 246.398 487.416C246.368 487.434 246.333 487.441 246.298 487.438Z" fill="white"/>
<path d="M262.815 491.92H234.365C234.327 491.928 234.287 491.928 234.248 491.918C234.21 491.909 234.174 491.891 234.143 491.866C234.112 491.842 234.088 491.81 234.071 491.775C234.054 491.739 234.045 491.7 234.045 491.661C234.045 491.622 234.054 491.583 234.071 491.547C234.088 491.512 234.112 491.48 234.143 491.455C234.174 491.431 234.21 491.413 234.248 491.404C234.287 491.394 234.327 491.394 234.365 491.402H262.815C262.853 491.394 262.893 491.394 262.932 491.404C262.97 491.413 263.006 491.431 263.037 491.455C263.068 491.48 263.092 491.512 263.109 491.547C263.126 491.583 263.135 491.622 263.135 491.661C263.135 491.7 263.126 491.739 263.109 491.775C263.092 491.81 263.068 491.842 263.037 491.866C263.006 491.891 262.97 491.909 262.932 491.918C262.893 491.928 262.853 491.928 262.815 491.92Z" fill="white"/>
<path d="M246.564 475.294H265.046L265.301 468.394H246.409L246.564 475.294Z" fill="#263238"/>
<path d="M304.995 470.282L308.003 481.786H317.405L317.127 471.507L304.995 470.282Z" fill="#CE7A63"/>
<path d="M307.47 479.412C307.47 479.412 305.25 479.081 305.949 481.786C306.649 484.49 305.772 491.004 306.438 493.521H335.298C335.298 493.521 334.854 487.306 329.581 487.118C322.511 486.875 319.214 482.812 319.214 482.812C318.182 479.975 316.372 480.924 313.475 481.234C310.8 481.499 307.47 479.412 307.47 479.412Z" fill="#263238"/>
<path d="M321.112 484.446C320.744 484.494 320.394 484.628 320.089 484.837C319.784 485.046 319.533 485.325 319.358 485.65" fill="black"/>
<path d="M319.358 485.915C319.413 485.916 319.466 485.901 319.512 485.872C319.558 485.842 319.593 485.799 319.613 485.749C319.768 485.467 319.987 485.227 320.253 485.046C320.52 484.866 320.825 484.751 321.145 484.711C321.18 484.707 321.214 484.696 321.244 484.679C321.274 484.661 321.3 484.638 321.321 484.61C321.342 484.582 321.357 484.55 321.365 484.516C321.373 484.482 321.374 484.447 321.367 484.413C321.365 484.379 321.355 484.346 321.339 484.316C321.322 484.286 321.3 484.259 321.273 484.238C321.245 484.218 321.214 484.203 321.181 484.195C321.147 484.187 321.112 484.186 321.079 484.192C320.664 484.24 320.268 484.389 319.925 484.626C319.582 484.863 319.303 485.18 319.114 485.55C319.088 485.615 319.089 485.687 319.116 485.751C319.143 485.815 319.194 485.866 319.258 485.892C319.288 485.91 319.323 485.918 319.358 485.915Z" fill="white"/>
<path d="M322.588 485.053C322.22 485.093 321.867 485.225 321.563 485.435C321.259 485.645 321.012 485.928 320.845 486.257" fill="black"/>
<path d="M320.845 486.522C320.898 486.52 320.948 486.503 320.992 486.474C321.035 486.445 321.069 486.404 321.09 486.356C321.244 486.075 321.463 485.834 321.73 485.653C321.996 485.473 322.302 485.358 322.621 485.318C322.656 485.314 322.69 485.303 322.721 485.286C322.752 485.268 322.778 485.245 322.8 485.217C322.822 485.19 322.838 485.158 322.847 485.124C322.856 485.09 322.859 485.055 322.855 485.02C322.85 484.985 322.839 484.952 322.822 484.921C322.804 484.891 322.781 484.864 322.753 484.843C322.725 484.821 322.693 484.805 322.659 484.796C322.625 484.787 322.59 484.784 322.555 484.788C322.14 484.84 321.744 484.992 321.402 485.23C321.059 485.469 320.781 485.787 320.59 486.157C320.564 486.222 320.565 486.294 320.592 486.358C320.619 486.422 320.67 486.473 320.734 486.5L320.845 486.522Z" fill="white"/>
<path d="M324.442 485.859C324.074 485.904 323.722 486.037 323.416 486.247C323.111 486.456 322.861 486.736 322.688 487.063" fill="black"/>
<path d="M322.688 487.328C322.742 487.328 322.795 487.312 322.841 487.283C322.886 487.253 322.922 487.212 322.943 487.162C323.096 486.88 323.315 486.638 323.582 486.457C323.848 486.276 324.155 486.162 324.475 486.124C324.546 486.116 324.61 486.079 324.654 486.023C324.698 485.967 324.717 485.897 324.708 485.826C324.699 485.756 324.663 485.692 324.607 485.649C324.551 485.605 324.479 485.586 324.409 485.594C323.993 485.645 323.597 485.796 323.255 486.035C322.912 486.274 322.634 486.593 322.444 486.963C322.418 487.028 322.419 487.1 322.446 487.164C322.473 487.228 322.524 487.279 322.588 487.306L322.688 487.328Z" fill="white"/>
<path d="M306.171 491.81H334.621C334.691 491.81 334.759 491.782 334.809 491.732C334.859 491.683 334.887 491.615 334.887 491.545C334.887 491.475 334.859 491.407 334.809 491.358C334.759 491.308 334.691 491.28 334.621 491.28H306.171C306.101 491.28 306.033 491.308 305.983 491.358C305.933 491.407 305.905 491.475 305.905 491.545C305.905 491.615 305.933 491.683 305.983 491.732C306.033 491.782 306.101 491.81 306.171 491.81Z" fill="white"/>
<path d="M321.523 475.294L302.375 475.515L301.11 468.626L321.278 468.394L321.523 475.294Z" fill="#263238"/>
<path d="M299.966 168.062L303.774 172.787L307.659 177.567C310.245 180.747 312.876 183.871 315.518 186.907C318.159 189.943 320.823 192.891 323.532 195.474C324.864 196.766 326.185 198.002 327.439 198.996C328.049 199.493 328.649 199.945 329.159 200.288C329.437 200.497 329.615 200.575 329.848 200.74L330.07 200.873L330.17 200.939H330.225C330.225 200.939 330.114 200.939 330.07 200.939C328.893 200.685 328.782 200.939 328.96 200.939C329.441 200.961 329.924 200.913 330.392 200.795C331.989 200.418 333.552 199.909 335.065 199.272C338.691 197.761 342.23 196.051 345.665 194.149C352.814 190.252 360.095 185.781 367.177 181.409L374.325 189.778C368.312 196.29 361.798 202.329 354.845 207.839C351.213 210.749 347.378 213.398 343.367 215.766C341.088 217.113 338.692 218.255 336.208 219.177C334.646 219.765 333.028 220.194 331.379 220.458C328.9 220.89 326.354 220.761 323.931 220.082C322.235 219.553 320.592 218.865 319.025 218.029C317.671 217.322 316.483 216.605 315.351 215.821C313.244 214.434 311.217 212.93 309.279 211.317C305.723 208.334 302.335 205.157 299.134 201.8C295.981 198.554 293.04 195.176 290.176 191.809C288.778 190.098 287.368 188.387 286.014 186.631L283.994 183.982L281.996 181.211L299.966 168.062Z" fill="#263238"/>
<path d="M367.199 181.387C367.199 181.387 372.105 177.225 373.859 174.355C375.613 171.484 384.837 180.979 384.959 182.337C385.081 183.695 374.359 189.756 374.359 189.756L367.199 181.387Z" fill="#CE7A63"/>
<path d="M372.838 174.211C372.838 174.211 381.463 163.447 383.616 162.288C385.769 161.129 380.219 171.33 380.219 171.33C380.219 171.33 387.679 175.448 387.845 178.175C388.012 180.901 386.435 183.452 384.615 183.948C384.026 184.042 383.423 183.976 382.869 183.759C382.314 183.541 381.829 183.18 381.463 182.712L372.838 174.211Z" fill="#CE7A63"/>
<path d="M368.964 180.846C368.964 180.846 369.674 169.74 371.495 169.497C373.315 169.254 377.045 174.874 377.045 174.874L368.964 180.846Z" fill="#CE7A63"/>
<path d="M263.27 161.029C263.27 161.029 242.18 168.216 240.814 173.527C239.449 178.837 242.79 220.369 242.968 228.274C243.146 236.179 236.63 265.391 241.148 270.999C245.987 277.016 306.138 280.317 307.181 273.152C308.536 263.878 305.172 234.015 305.527 223.637C305.883 213.26 302.63 172.091 300.333 168.095C298.035 164.099 277.156 161.957 277.156 161.957L263.27 161.029Z" fill="#263238"/>
<g opacity="0.2">
<path d="M244.122 271.871C242.479 267.455 245.055 251.204 246.953 239.325C247.419 236.355 247.83 233.805 248.063 231.763C249.461 221.827 245.576 199.614 245.532 199.382L246.076 199.294C246.076 199.515 250.016 221.86 248.618 231.84C248.329 233.871 247.93 236.444 247.452 239.413C245.676 250.564 243.012 267.422 244.6 271.672L244.122 271.871Z" fill="white"/>
</g>
<path d="M260.639 133.584C260.639 133.584 257.886 125.359 258.952 122.014C260.017 118.669 262.393 118.227 262.393 118.227C262.393 118.227 263.736 109.329 272.583 109.859C281.429 110.389 291.708 107.22 293.673 111.802C295.637 116.384 288.611 119.376 288.611 119.376C288.611 119.376 291.386 122.688 290.332 125.359C289.277 128.031 286.824 125.536 286.824 125.536L260.639 133.584Z" fill="#263238"/>
<path d="M279.92 165.49C278.943 166.781 277.833 169.354 273.948 169.906C269.053 170.557 263.459 165.412 262.848 163.282C264.236 156.315 265.068 148.278 263.958 141.963L270.341 147.252L279.609 154.924C279.609 155.09 279.509 155.278 279.454 155.443C279.398 155.609 279.354 155.907 279.298 156.139C279.172 156.696 279.075 157.26 279.01 157.828C278.954 158.281 278.921 158.733 278.91 159.175C278.871 160.508 278.986 161.842 279.254 163.149C279.412 163.946 279.635 164.729 279.92 165.49Z" fill="#CE7A63"/>
<path d="M273.526 180.316C271.362 180.335 269.26 179.597 267.588 178.23C261.782 173.538 261.05 162.674 261.028 162.211C261.023 162.175 261.026 162.138 261.037 162.103C261.047 162.069 261.065 162.037 261.089 162.009C261.114 161.982 261.143 161.96 261.177 161.946C261.21 161.931 261.246 161.923 261.283 161.924C261.32 161.919 261.357 161.922 261.392 161.933C261.428 161.943 261.461 161.961 261.489 161.985C261.517 162.009 261.54 162.038 261.556 162.071C261.572 162.105 261.581 162.141 261.583 162.178C261.583 162.288 262.315 173.218 267.943 177.799C268.936 178.603 270.091 179.184 271.331 179.503C272.571 179.821 273.865 179.869 275.125 179.643C276.058 179.544 276.957 179.235 277.753 178.74C278.55 178.244 279.222 177.575 279.72 176.784C282.784 171.849 279.72 162.432 279.664 162.277C279.651 162.243 279.644 162.207 279.646 162.17C279.648 162.134 279.657 162.098 279.674 162.065C279.691 162.033 279.715 162.004 279.744 161.982C279.773 161.959 279.806 161.943 279.842 161.935C279.876 161.923 279.913 161.918 279.949 161.92C279.985 161.923 280.02 161.933 280.052 161.949C280.085 161.966 280.113 161.989 280.136 162.017C280.159 162.044 280.176 162.077 280.186 162.111C280.319 162.509 283.394 171.926 280.186 177.071C279.65 177.936 278.92 178.667 278.054 179.207C277.188 179.747 276.208 180.081 275.191 180.184C274.64 180.27 274.084 180.315 273.526 180.316Z" fill="white"/>
<g opacity="0.2">
<path d="M279.232 163.149C275.768 162.432 271.462 159.638 270.218 156.139C269.397 153.864 270.218 151.546 271.106 151.303L278.987 157.828C278.932 158.281 278.899 158.733 278.888 159.175C278.849 160.508 278.964 161.842 279.232 163.149Z" fill="black"/>
</g>
<path d="M261.327 130.272C261.146 127.853 261.59 125.429 262.615 123.228C263.64 121.028 265.213 119.124 267.186 117.697C269.158 116.271 271.464 115.369 273.885 115.078C276.305 114.786 278.761 115.114 281.019 116.03C291.275 120.159 292.74 135.604 290.509 144.966C288.034 155.366 275.125 160.157 267.199 152.142C261.904 146.81 262.049 140.683 261.372 130.272" fill="#CE7A63"/>
<g opacity="0.2">
<path d="M270.718 124.321C270.718 124.321 272.727 128.517 269.874 129.643C267.022 130.769 269.874 135.869 269.874 135.869L263.891 138.077C261.981 136.033 260.895 133.36 260.839 130.57C260.839 126.055 261.094 123.063 261.094 123.063L270.718 124.321Z" fill="black"/>
</g>
<path d="M260.85 124.509C260.85 124.509 267.233 126.276 269.885 125.039C272.538 123.803 268.465 121.871 270.507 120.193C272.549 118.514 283.949 119.243 287.157 120.91C290.365 122.577 287.346 114.915 280.974 113.944C274.603 112.972 261.96 114.386 260.85 124.509Z" fill="#263238"/>
<path d="M265.423 137.371C265.423 137.371 259.34 142.968 264.424 151.303C267.643 156.58 276.634 161.118 282.273 160.312C290.254 159.208 290.998 142.394 290.998 142.394C290.318 141.677 289.405 141.22 288.421 141.105C287.437 140.99 286.443 141.224 285.614 141.765C282.584 143.697 279.809 139.744 277.367 139.744C274.925 139.744 272.583 143.454 270.707 141.952C268.831 140.451 269.863 135.869 269.863 135.869L265.423 137.371Z" fill="#263238"/>
<path d="M256.854 137.172C257.609 139.686 259.332 141.802 261.649 143.056C264.724 144.69 267.022 142.129 266.8 138.85C266.589 135.891 264.746 131.475 261.349 131.188C257.953 130.901 255.966 134.081 256.909 137.172" fill="#CE7A63"/>
<path d="M277.367 135.284C277.367 136.134 277.822 136.819 278.377 136.819C278.932 136.819 279.387 136.134 279.387 135.284C279.387 134.434 278.932 133.75 278.366 133.75C277.8 133.75 277.367 134.434 277.367 135.284Z" fill="#263238"/>
<path d="M286.702 135.152C286.702 136.002 287.157 136.686 287.723 136.686C288.289 136.686 288.722 135.991 288.722 135.152C288.722 134.313 288.267 133.617 287.712 133.617C287.157 133.617 286.702 134.302 286.702 135.152Z" fill="#263238"/>
<path d="M278.077 142.968C280.75 143.994 283.643 144.321 286.48 143.917C286.48 143.917 285.936 147.583 282.551 147.649C278.466 147.748 278.077 142.968 278.077 142.968Z" fill="white"/>
<path d="M289.71 131.431C289.637 131.434 289.564 131.416 289.501 131.379C289.438 131.342 289.387 131.287 289.355 131.221C289.225 130.959 289.044 130.726 288.82 130.536C288.597 130.346 288.337 130.204 288.056 130.117C287.478 130.001 286.876 130.091 286.358 130.371C286.311 130.399 286.26 130.417 286.206 130.425C286.152 130.432 286.097 130.43 286.045 130.416C285.992 130.403 285.943 130.379 285.899 130.347C285.856 130.315 285.819 130.274 285.792 130.228C285.764 130.181 285.746 130.13 285.738 130.077C285.73 130.023 285.733 129.969 285.747 129.917C285.76 129.864 285.784 129.815 285.816 129.772C285.849 129.729 285.889 129.692 285.936 129.665C286.644 129.268 287.473 129.143 288.267 129.312C288.657 129.427 289.019 129.62 289.33 129.881C289.641 130.141 289.895 130.462 290.076 130.824C290.129 130.92 290.142 131.032 290.113 131.137C290.084 131.242 290.015 131.332 289.921 131.387C289.855 131.418 289.783 131.433 289.71 131.431Z" fill="#263238"/>
<path d="M275.169 131.762C275.106 131.773 275.043 131.773 274.98 131.762C274.883 131.713 274.809 131.627 274.774 131.524C274.739 131.421 274.745 131.309 274.792 131.21C275.167 130.491 275.795 129.933 276.556 129.643C276.944 129.53 277.35 129.496 277.75 129.543C278.151 129.591 278.538 129.719 278.887 129.919C278.986 129.971 279.06 130.058 279.095 130.163C279.13 130.268 279.123 130.382 279.076 130.482C279.024 130.579 278.936 130.653 278.83 130.686C278.724 130.719 278.609 130.709 278.51 130.658C278.26 130.507 277.981 130.408 277.691 130.369C277.4 130.329 277.105 130.348 276.823 130.427C276.279 130.637 275.824 131.027 275.535 131.531C275.503 131.6 275.452 131.659 275.387 131.7C275.322 131.741 275.246 131.763 275.169 131.762Z" fill="#263238"/>
<path d="M283.05 133.915C283.524 135.621 284.484 137.155 285.814 138.331C287.956 140.109 283.738 141.71 283.738 141.71L283.05 133.915Z" fill="#BA4D3C"/>
<path d="M259.019 186.09L240.715 204.505C237.729 207.607 234.698 210.643 231.835 213.768C229.085 216.669 226.491 219.713 224.065 222.887C223.521 223.604 223.032 224.3 222.655 224.874C222.277 225.448 222.022 225.978 222 225.834C221.978 225.691 222 225.691 222 225.437V225.271C222.005 225.179 222.005 225.087 222 224.995C222 224.808 222 224.609 222 224.465C221.972 224.099 221.87 223.743 221.7 223.417C221.545 223.218 221.645 223.637 221.922 224.134C222.768 225.523 223.766 226.815 224.897 227.987C226.185 229.367 227.617 230.78 229.126 232.182C235.209 237.702 242.246 243.134 249.106 248.356L243.756 257.961C239.394 256.205 235.309 254.284 231.18 252.187C226.99 250.062 222.915 247.722 218.97 245.176C216.961 243.852 214.952 242.461 212.965 240.849C210.74 239.099 208.705 237.123 206.893 234.953C205.631 233.43 204.609 231.725 203.863 229.897C203.305 228.533 202.961 227.092 202.841 225.625C202.813 225.172 202.813 224.719 202.841 224.267V223.571L202.897 223.008C202.974 222.325 203.089 221.647 203.241 220.977C203.692 219.191 204.324 217.457 205.128 215.799C205.783 214.43 206.438 213.216 207.104 212.067C209.647 207.904 212.446 203.9 215.484 200.078C218.404 196.424 221.334 192.88 224.364 189.491C227.395 186.101 230.514 182.778 233.677 179.555C236.841 176.331 240.037 173.173 243.501 170.06L259.019 186.09Z" fill="#263238"/>
<path d="M241.814 243.123C241.814 243.123 247.952 247.053 248.351 250.729C248.751 254.406 246.009 262.873 243.434 262.476C240.859 262.079 238.905 261.659 237.718 257.961C236.53 254.262 241.814 243.123 241.814 243.123Z" fill="#CE7A63"/>
<g opacity="0.2">
<path d="M241.014 291.577V291.037C252.048 290.153 251.715 274.289 251.704 274.134H252.259C252.225 274.278 252.569 290.661 241.014 291.577Z" fill="white"/>
</g>
<path d="M262.97 327.711H195.638C195.266 327.709 194.9 327.62 194.569 327.45C194.239 327.28 193.954 327.035 193.738 326.734C193.521 326.434 193.379 326.087 193.323 325.721C193.268 325.355 193.3 324.982 193.418 324.631L208.036 280.339C208.189 279.871 208.486 279.463 208.884 279.172C209.282 278.881 209.762 278.722 210.256 278.716H277.589C277.961 278.718 278.327 278.807 278.657 278.977C278.987 279.147 279.272 279.392 279.489 279.693C279.705 279.993 279.847 280.34 279.903 280.706C279.959 281.072 279.926 281.445 279.809 281.796L265.19 326.099C265.034 326.564 264.736 326.968 264.338 327.257C263.941 327.546 263.462 327.705 262.97 327.711Z" fill="#59CE8F"/>
<g opacity="0.6">
<path d="M262.97 327.711H195.638C195.266 327.709 194.9 327.62 194.569 327.45C194.239 327.28 193.954 327.035 193.738 326.734C193.521 326.434 193.379 326.087 193.323 325.721C193.268 325.355 193.3 324.982 193.418 324.631L208.036 280.339C208.189 279.871 208.486 279.463 208.884 279.172C209.282 278.881 209.762 278.722 210.256 278.716H277.589C277.961 278.718 278.327 278.807 278.657 278.977C278.987 279.147 279.272 279.392 279.489 279.693C279.705 279.993 279.847 280.34 279.903 280.706C279.959 281.072 279.926 281.445 279.809 281.796L265.19 326.099C265.034 326.564 264.736 326.968 264.338 327.257C263.941 327.546 263.462 327.705 262.97 327.711Z" fill="white"/>
</g>
<g opacity="0.5">
<path d="M243.312 304.075C243.01 305.538 242.219 306.856 241.069 307.816C239.918 308.776 238.475 309.321 236.974 309.363C236.305 309.389 235.64 309.262 235.028 308.992C234.417 308.721 233.876 308.315 233.447 307.804C233.018 307.294 232.712 306.692 232.554 306.045C232.396 305.398 232.389 304.724 232.534 304.075C232.834 302.611 233.622 301.292 234.77 300.33C235.918 299.368 237.36 298.82 238.861 298.775C239.528 298.76 240.189 298.895 240.797 299.169C241.404 299.443 241.942 299.85 242.369 300.359C242.797 300.868 243.104 301.467 243.267 302.11C243.43 302.753 243.446 303.425 243.312 304.075Z" fill="white"/>
</g>
<path d="M171.65 326.784L170.23 331.045C170.129 331.346 170.102 331.666 170.151 331.979C170.199 332.292 170.322 332.589 170.508 332.845C170.695 333.102 170.94 333.311 171.223 333.454C171.507 333.598 171.82 333.673 172.139 333.673H261.316C261.74 333.677 262.153 333.546 262.497 333.3C262.84 333.054 263.095 332.705 263.225 332.304L265.079 326.784H171.65Z" fill="#59CE8F"/>
<g opacity="0.6">
<path d="M171.65 326.784L170.23 331.045C170.129 331.346 170.102 331.666 170.151 331.979C170.199 332.292 170.322 332.589 170.508 332.845C170.695 333.102 170.94 333.311 171.223 333.454C171.507 333.598 171.82 333.673 172.139 333.673H261.316C261.74 333.677 262.153 333.546 262.497 333.3C262.84 333.054 263.095 332.705 263.225 332.304L265.079 326.784H171.65Z" fill="white"/>
</g>
<path d="M264.89 327.005H193.706C193.632 327.005 193.562 326.976 193.51 326.924C193.458 326.872 193.429 326.802 193.429 326.729C193.429 326.656 193.458 326.585 193.51 326.534C193.562 326.482 193.632 326.453 193.706 326.453H264.89C264.964 326.453 265.035 326.482 265.087 326.534C265.139 326.585 265.168 326.656 265.168 326.729C265.168 326.802 265.139 326.872 265.087 326.924C265.035 326.976 264.964 327.005 264.89 327.005Z" fill="#59CE8F"/>
<path d="M309.801 327.711H377.134C377.505 327.709 377.871 327.62 378.202 327.45C378.532 327.28 378.817 327.035 379.034 326.734C379.25 326.434 379.392 326.087 379.448 325.721C379.503 325.355 379.471 324.982 379.354 324.631L364.735 280.339C364.582 279.871 364.285 279.463 363.887 279.172C363.489 278.881 363.009 278.722 362.515 278.716H295.182C294.811 278.72 294.447 278.811 294.118 278.982C293.789 279.152 293.505 279.397 293.289 279.697C293.072 279.997 292.93 280.343 292.874 280.708C292.817 281.072 292.847 281.445 292.962 281.796L307.581 326.099C307.737 326.564 308.035 326.968 308.433 327.257C308.831 327.546 309.309 327.705 309.801 327.711Z" fill="#59CE8F"/>
<g opacity="0.6">
<path d="M309.801 327.711H377.134C377.505 327.709 377.871 327.62 378.202 327.45C378.532 327.28 378.817 327.035 379.034 326.734C379.25 326.434 379.392 326.087 379.448 325.721C379.503 325.355 379.471 324.982 379.354 324.631L364.735 280.339C364.582 279.871 364.285 279.463 363.887 279.172C363.489 278.881 363.009 278.722 362.515 278.716H295.182C294.811 278.72 294.447 278.811 294.118 278.982C293.789 279.152 293.505 279.397 293.289 279.697C293.072 279.997 292.93 280.343 292.874 280.708C292.817 281.072 292.847 281.445 292.962 281.796L307.581 326.099C307.737 326.564 308.035 326.968 308.433 327.257C308.831 327.546 309.309 327.705 309.801 327.711Z" fill="white"/>
</g>
<g opacity="0.4">
<path d="M315.884 323.207H370.851C371.154 323.206 371.453 323.134 371.723 322.997C371.993 322.859 372.226 322.66 372.404 322.416C372.581 322.171 372.698 321.888 372.745 321.59C372.791 321.292 372.766 320.987 372.671 320.701L360.75 284.545C360.624 284.16 360.379 283.825 360.05 283.587C359.721 283.35 359.325 283.221 358.919 283.22H303.951C303.647 283.221 303.347 283.293 303.075 283.431C302.804 283.569 302.57 283.769 302.391 284.015C302.213 284.26 302.095 284.544 302.048 284.844C302.001 285.143 302.025 285.449 302.12 285.737L314.063 321.893C314.188 322.276 314.431 322.609 314.758 322.845C315.086 323.081 315.48 323.208 315.884 323.207Z" fill="white"/>
</g>
<path d="M401.121 326.784L402.541 331.045C402.642 331.346 402.669 331.666 402.62 331.979C402.572 332.292 402.449 332.589 402.263 332.845C402.077 333.102 401.831 333.311 401.548 333.454C401.264 333.598 400.951 333.673 400.632 333.673H311.455C311.032 333.677 310.618 333.546 310.275 333.3C309.931 333.054 309.676 332.705 309.546 332.304L307.692 326.784H401.121Z" fill="#59CE8F"/>
<g opacity="0.4">
<path d="M401.121 326.784L402.541 331.045C402.642 331.346 402.669 331.666 402.62 331.979C402.572 332.292 402.449 332.589 402.263 332.845C402.077 333.102 401.831 333.311 401.548 333.454C401.264 333.598 400.951 333.673 400.632 333.673H311.455C311.032 333.677 310.618 333.546 310.275 333.3C309.931 333.054 309.676 332.705 309.546 332.304L307.692 326.784H401.121Z" fill="white"/>
</g>
<path d="M439.482 333.618H169.242V341.743H439.482V333.618Z" fill="black"/>
<g opacity="0.8">
<path d="M439.482 333.618H169.242V341.743H439.482V333.618Z" fill="white"/>
</g>
<path d="M187.09 341.743L162.815 493.576L167.688 493.687L197.769 341.743H187.09Z" fill="black"/>
<g opacity="0.8">
<path d="M187.09 341.743L162.815 493.565L167.688 493.687L197.769 341.743H187.09Z" fill="white"/>
</g>
<path d="M416.971 341.743L441.247 493.576L436.374 493.687L406.293 341.743H416.971Z" fill="black"/>
<g opacity="0.8">
<path d="M416.971 341.743L441.247 493.565L436.374 493.687L406.293 341.743H416.971Z" fill="white"/>
</g>
<path d="M411.688 350.145H187.401V353.258H411.688V350.145Z" fill="black"/>
<g opacity="0.8">
<path d="M411.688 350.145H187.401V353.258H411.688V350.145Z" fill="white"/>
</g>
<path d="M440.581 347.352C440.581 347.352 453.257 375.934 426.062 383.143C407.47 388.078 380.386 375.658 368.398 379.588C368.398 379.588 373.626 381.421 379.675 401.558C385.725 421.695 396.104 459.297 396.104 459.297L381.674 459.882C381.674 459.882 343.112 381.587 342.335 367.378C341.558 353.17 412.92 342.98 412.92 342.98L440.581 347.352Z" fill="#263238"/>
<path d="M471.595 351.392C471.595 351.392 483.805 382.039 455.622 384.998C433.755 387.294 413.73 385.186 397.546 383.497C397.546 383.497 405.472 383.883 411.521 404.02C417.571 424.157 428.915 459.441 428.915 459.441H411.155C411.155 459.441 365.734 382.382 364.957 368.173C364.18 353.965 440.592 347.296 440.592 347.296L471.595 351.392Z" fill="#263238"/>
<g opacity="0.2">
<path d="M391.652 461.384C390.42 458.072 361.305 380.792 361.305 375.912C361.305 371.032 404.528 365.281 409.457 364.651L409.523 365.203C390.365 367.632 361.86 372.545 361.86 375.912C361.86 380.648 391.83 460.39 392.174 461.196L391.652 461.384Z" fill="white"/>
</g>
<path d="M427.239 461.284L429.503 472.766H420.102L414.774 462.609L427.239 461.284Z" fill="#B55B52"/>
<path d="M429.503 470.845C429.848 473.627 420.535 471.32 419.591 472.766C418.648 474.212 417.371 479.048 415.939 481.488C414.507 483.927 406.293 491.766 406.293 491.766H423.776L426.418 487.979L427.283 491.766H432.112C432.112 491.766 430.28 472.799 429.503 470.845Z" fill="#263238"/>
<path d="M409.823 466.252H432.112L430.702 459.441H408.425L409.823 466.252Z" fill="#263238"/>
<g opacity="0.3">
<path d="M409.823 466.252H432.112L430.702 459.441H408.425L409.823 466.252Z" fill="white"/>
</g>
<path d="M391.186 236.808C391.102 236.838 391.012 236.845 390.925 236.83C390.837 236.814 390.755 236.776 390.687 236.72C390.581 236.632 390.515 236.506 390.502 236.369C390.49 236.233 390.532 236.097 390.62 235.991C391.132 235.355 391.791 234.852 392.541 234.525C393.291 234.198 394.11 234.057 394.927 234.114C394.994 234.121 395.058 234.141 395.117 234.173C395.176 234.206 395.228 234.249 395.269 234.302C395.311 234.354 395.341 234.415 395.359 234.479C395.376 234.544 395.38 234.611 395.371 234.677C395.364 234.744 395.344 234.809 395.312 234.868C395.279 234.927 395.236 234.979 395.183 235.021C395.13 235.063 395.07 235.095 395.005 235.113C394.94 235.132 394.872 235.138 394.805 235.13C394.158 235.099 393.513 235.221 392.922 235.485C392.332 235.75 391.813 236.151 391.408 236.653C391.355 236.73 391.276 236.785 391.186 236.808Z" fill="#263238"/>
<path d="M392.152 239.038C391.754 241.083 391.074 243.063 390.132 244.922C390.616 245.149 391.145 245.266 391.68 245.266C392.215 245.266 392.744 245.149 393.229 244.922L392.152 239.038Z" fill="#A02724"/>
<path d="M393.506 239.292C393.739 240.131 393.506 240.937 392.94 241.103C392.374 241.268 391.752 240.705 391.508 239.866C391.264 239.027 391.508 238.221 392.063 238.067C392.618 237.912 393.262 238.453 393.506 239.292Z" fill="#263238"/>
<path d="M392.318 238.044H390.098C390.098 238.044 391.586 239.314 392.318 238.044Z" fill="#263238"/>
<path d="M392.385 225.359C392.385 225.359 387.556 226.585 391.519 233.794L395.127 226.419L392.385 225.359Z" fill="#263238"/>
<path d="M412.975 217.709C412.975 217.709 408.868 201.734 421.966 202.915C435.064 204.096 432.756 215.059 432.756 215.059C432.756 215.059 440.648 215.335 437.074 224.333C433.499 233.33 419.425 227.59 419.425 227.59C416.072 225.437 414.108 221.959 412.975 217.709Z" fill="#263238"/>
<path d="M418.625 265.225C415.891 264.862 413.11 265.339 410.656 266.594C412.287 263.525 410.922 260.047 409.09 256.879L418.159 243.311C418.714 249.935 420.768 261.692 426.351 264.618C426.351 264.618 428.183 266.196 418.625 265.225Z" fill="#B55B52"/>
<g opacity="0.2">
<path d="M414.463 248.842L409.09 256.868C409.717 257.923 410.248 259.031 410.678 260.18C413.242 259.076 416.084 255.079 415.573 252.209C415.406 251.047 415.03 249.925 414.463 248.897" fill="black"/>
</g>
<path d="M420.579 230.637C421.811 241.036 422.566 245.419 418.359 251.613C411.943 260.975 398.823 260.213 394.483 250.387C390.565 241.555 389.199 226 398.579 220.082C400.645 218.782 403.01 218.025 405.452 217.883C407.893 217.74 410.33 218.218 412.535 219.269C414.74 220.321 416.641 221.913 418.057 223.896C419.474 225.878 420.361 228.187 420.635 230.604" fill="#B55B52"/>
<path d="M404.195 215.578C404.195 215.578 413.719 212.94 420.324 218.89C426.928 224.841 428.671 240.462 418.759 250.906C419.069 254.075 405.294 255.664 400.999 246.788C399.445 243.565 397.236 241.478 396.203 230.339L392.207 229.389C388.888 227.998 389.222 214.651 404.195 215.578Z" fill="#263238"/>
<path d="M405.86 238.928C405.498 240.919 404.356 242.686 402.686 243.84C400.466 245.364 398.468 243.587 398.368 241.036C398.279 238.751 399.322 235.207 401.909 234.71C402.476 234.61 403.06 234.653 403.606 234.834C404.153 235.016 404.645 235.331 405.038 235.75C405.431 236.169 405.712 236.68 405.855 237.235C405.999 237.79 406.001 238.372 405.86 238.928Z" fill="#B55B52"/>
<path d="M399.3 244.359C399.381 244.696 399.561 245.001 399.817 245.235C400.072 245.47 400.392 245.623 400.736 245.677C401.079 245.73 401.431 245.68 401.746 245.534C402.062 245.388 402.326 245.152 402.506 244.856C402.686 244.56 402.774 244.218 402.758 243.872C402.742 243.527 402.623 243.194 402.416 242.916C402.209 242.638 401.924 242.427 401.596 242.311C401.269 242.194 400.914 242.177 400.577 242.262C400.129 242.374 399.744 242.657 399.505 243.05C399.267 243.442 399.193 243.913 399.3 244.359Z" fill="white"/>
<path d="M424.63 229.268C411.976 228.164 412.099 215.125 412.11 214.993C412.108 214.955 412.115 214.917 412.128 214.881C412.142 214.846 412.164 214.813 412.191 214.787C412.218 214.76 412.25 214.738 412.286 214.725C412.322 214.711 412.36 214.704 412.398 214.706C412.437 214.706 412.476 214.714 412.511 214.729C412.547 214.744 412.579 214.766 412.606 214.794C412.633 214.822 412.654 214.855 412.668 214.891C412.682 214.927 412.688 214.965 412.687 215.004C412.687 215.512 412.576 227.579 424.686 228.694C424.763 228.694 424.836 228.724 424.89 228.778C424.944 228.832 424.975 228.905 424.975 228.981C424.975 229.057 424.944 229.13 424.89 229.184C424.836 229.237 424.763 229.268 424.686 229.268H424.63Z" fill="#59CE8F"/>
<path d="M412.365 218.735C410.855 218.592 403.263 217.764 402.597 215.909C402.54 215.71 402.545 215.498 402.61 215.301C402.675 215.105 402.798 214.932 402.963 214.805C405.505 212.321 412.687 217.996 412.953 218.239C412.98 218.264 413.002 218.295 413.016 218.329C413.031 218.364 413.038 218.4 413.038 218.437C413.038 218.474 413.031 218.511 413.016 218.545C413.002 218.58 412.98 218.61 412.953 218.636C412.9 218.687 412.828 218.716 412.754 218.716C412.679 218.716 412.607 218.687 412.554 218.636C412.531 218.665 412.503 218.689 412.47 218.706C412.438 218.724 412.402 218.733 412.365 218.735ZM404.684 214.728C404.438 214.713 404.191 214.747 403.958 214.829C403.726 214.91 403.512 215.037 403.33 215.203C403.03 215.49 403.097 215.666 403.108 215.722C403.507 216.826 408.469 217.742 411.854 218.106C409.99 216.748 406.748 214.728 404.684 214.728Z" fill="#59CE8F"/>
<path d="M412.365 218.106C412.29 218.106 412.219 218.078 412.165 218.026C412.111 217.975 412.079 217.904 412.076 217.83C412.032 217.83 411.989 217.819 411.95 217.797C411.911 217.776 411.878 217.746 411.854 217.709C410.978 216.472 406.626 210.235 407.603 208.524C407.715 208.339 407.883 208.195 408.082 208.112C408.282 208.028 408.503 208.01 408.713 208.06C412.265 208.336 412.654 217.455 412.676 217.841C412.677 217.879 412.671 217.917 412.658 217.952C412.645 217.987 412.625 218.02 412.599 218.048C412.573 218.075 412.542 218.098 412.508 218.113C412.473 218.129 412.436 218.138 412.398 218.139L412.365 218.106ZM408.535 208.59C408.214 208.59 408.136 208.722 408.103 208.766C407.525 209.793 410.078 214.121 412.021 216.903C411.788 213.999 410.911 208.777 408.691 208.59H408.535Z" fill="#59CE8F"/>
<path d="M449.261 337.824C441.824 350.818 397.369 349.019 394.927 346.236C392.485 343.454 402.086 309.506 402.064 301.149C402.009 292.836 393.562 283.364 396.67 277.214C398.212 274.598 400.194 272.264 402.53 270.314C404.49 268.569 406.539 266.925 408.669 265.391L409.068 265.115C409.457 264.828 409.812 264.585 410.123 264.375C410.855 263.867 411.299 263.591 411.299 263.591C416.35 262.422 421.481 261.632 426.651 261.228L428.049 261.151C431.041 260.948 434.046 261.115 436.996 261.648C446.509 263.635 448.096 272.037 448.429 281.421C448.762 290.805 456.698 324.841 449.261 337.824Z" fill="#79BD8F"/>
<g opacity="0.2">
<path d="M400.011 347.374H399.467C400.011 339.303 410.467 294.514 410.567 294.061L411.111 294.194C411 294.602 400.566 339.336 400.011 347.374Z" fill="white"/>
</g>
<g opacity="0.2">
<path d="M428.071 261.107C428.071 261.107 428.071 261.162 428.071 261.195C427.627 262.929 421.811 267.565 416.461 267.389C411.655 267.223 409.146 265.689 408.691 265.368L409.09 265.092C409.479 264.805 409.834 264.563 410.145 264.353C412.714 265.134 415.399 265.466 418.081 265.335C421.377 265.146 424.462 263.665 426.662 261.217L428.071 261.107Z" fill="black"/>
</g>
<path d="M415.495 284.17C414.718 295.309 406.304 299.626 402.064 301.16C402.009 292.847 393.562 283.375 396.67 277.225C398.212 274.609 400.194 272.275 402.53 270.325C408.302 271.374 416.172 274.609 415.495 284.17Z" fill="#B55B52"/>
<path d="M411.111 281.697C409.979 288.783 408.389 295.79 406.349 302.673C405.31 306.27 404.046 309.798 402.564 313.238C401.725 315.206 400.723 317.1 399.567 318.901C398.79 320.102 397.881 321.212 396.858 322.213L396.348 322.677L395.748 323.163C395.324 323.488 394.875 323.78 394.405 324.035C394.006 324.256 393.606 324.455 393.195 324.653L392.185 325.04C391.83 325.183 391.53 325.272 391.242 325.36L390.365 325.614C389.799 325.757 389.255 325.868 388.722 325.989L387.19 326.254L385.714 326.464C383.782 326.696 381.929 326.839 380.086 326.939C376.423 327.126 372.849 327.115 369.297 327.038C362.182 326.872 355.799 327.159 348.762 326.265L348.262 318.537C355.089 317.764 361.982 316.164 368.709 315.336C372.039 314.905 375.424 314.441 378.643 313.867C380.253 313.591 381.829 313.282 383.305 312.929L384.415 312.653L385.425 312.355L386.291 312.057L386.646 311.913C386.743 311.878 386.836 311.833 386.924 311.781L387.112 311.67H387.046C387.046 311.67 386.813 311.803 386.78 311.836L386.68 311.902C386.81 311.637 386.954 311.379 387.112 311.129C387.716 309.963 388.246 308.761 388.7 307.53C389.732 304.748 390.631 301.624 391.464 298.477C393.118 292.174 394.527 285.494 395.904 279.08L411.111 281.697Z" fill="#B55B52"/>
<path d="M326.606 326.784L337.285 326.265H348.762L350.061 318.703C350.061 318.703 339.449 317.786 336.308 318.703C336.308 318.703 328.316 322.545 327.261 323.914C326.956 324.319 326.739 324.785 326.626 325.279C326.514 325.774 326.507 326.287 326.606 326.784Z" fill="#B55B52"/>
<path d="M410.212 264.485C410.212 264.485 409.801 262.145 411.166 261.405C412.532 260.665 418.259 256.393 420.535 256.117C422.81 255.841 425.097 261.273 426.662 261.184C428.227 261.096 414.085 265.667 410.212 264.485Z" fill="#59CE8F"/>
<path d="M499.8 268.084C507.381 271.286 508.791 276.397 507.825 284.092C505.261 304.538 498.756 353.644 494.572 361.063C489.255 370.469 414.774 371.441 410.977 362.874C407.181 354.307 418.992 282.028 425.407 275.194C430.68 269.508 478.121 258.899 499.8 268.084Z" fill="black"/>
<g opacity="0.6">
<path d="M499.8 268.084C507.381 271.286 508.791 276.397 507.825 284.092C505.261 304.538 498.756 353.644 494.572 361.063C489.255 370.469 414.774 371.441 410.977 362.874C407.181 354.307 418.992 282.028 425.407 275.194C430.68 269.508 478.121 258.899 499.8 268.084Z" fill="white"/>
</g>
<g opacity="0.5">
<path d="M418.037 361.56L416.927 361.505C416.927 361.052 419.147 315.137 426.251 288.067C430.625 271.507 437.673 269.807 437.962 269.751L438.195 270.855C438.128 270.855 431.535 272.544 427.328 288.387C420.224 315.347 418.048 361.096 418.037 361.56Z" fill="white"/>
</g>
<path d="M411.688 361.527C411.688 361.527 407.481 362.189 396.903 363.967C393.373 364.563 389.921 365.126 386.913 365.601C383.979 366.066 381.309 367.557 379.382 369.805C377.455 372.053 376.398 374.912 376.401 377.866C376.4 379.498 376.721 381.114 377.348 382.622C377.975 384.13 378.895 385.501 380.055 386.655C381.214 387.81 382.591 388.726 384.107 389.351C385.623 389.975 387.248 390.297 388.889 390.297H474.625C478.852 390.325 482.97 388.968 486.345 386.436C489.719 383.904 492.162 380.338 493.295 376.287C494.498 371.464 494.958 366.487 494.66 361.527H411.688Z" fill="black"/>
<g opacity="0.5">
<path d="M411.688 361.527C411.688 361.527 407.481 362.189 396.903 363.967C393.373 364.563 389.921 365.126 386.913 365.601C383.979 366.066 381.309 367.557 379.382 369.805C377.455 372.053 376.398 374.912 376.401 377.866C376.4 379.498 376.721 381.114 377.348 382.622C377.975 384.13 378.895 385.501 380.055 386.655C381.214 387.81 382.591 388.726 384.107 389.351C385.623 389.975 387.248 390.297 388.889 390.297H474.625C478.852 390.325 482.97 388.968 486.345 386.436C489.719 383.904 492.162 380.338 493.295 376.287C494.498 371.464 494.958 366.487 494.66 361.527H411.688Z" fill="white"/>
</g>
<path d="M456.077 391.236H449.861V479.048H456.077V391.236Z" fill="black"/>
<g opacity="0.5">
<path d="M456.077 391.236H449.861V479.048H456.077V391.236Z" fill="white"/>
</g>
<path d="M496.636 480.383H501.609V477.877C501.609 473.485 499.855 469.273 496.732 466.168C493.61 463.062 489.375 461.317 484.959 461.317H458.719V466.263H484.948C488.048 466.269 491.019 467.497 493.21 469.679C495.401 471.86 496.633 474.816 496.636 477.899V480.383Z" fill="black"/>
<g opacity="0.6">
<path d="M496.636 480.383H501.609V477.877C501.609 473.485 499.855 469.273 496.732 466.168C493.61 463.062 489.375 461.317 484.959 461.317H458.719V466.263H484.948C488.048 466.269 491.019 467.497 493.21 469.679C495.401 471.86 496.633 474.816 496.636 477.899V480.383Z" fill="white"/>
</g>
<path d="M505.118 491.221C508.43 487.927 508.43 482.586 505.118 479.293C501.807 475.999 496.437 475.999 493.125 479.293C489.814 482.586 489.814 487.927 493.125 491.221C496.437 494.515 501.807 494.515 505.118 491.221Z" fill="black"/>
<g opacity="0.4">
<path d="M505.118 491.221C508.43 487.927 508.43 482.586 505.118 479.292C501.807 475.999 496.437 475.999 493.125 479.292C489.814 482.586 489.814 487.927 493.125 491.221C496.437 494.515 501.807 494.515 505.118 491.221Z" fill="white"/>
</g>
<g opacity="0.5">
<path d="M494.849 485.252C494.849 486.093 495.1 486.915 495.569 487.614C496.039 488.312 496.706 488.857 497.487 489.179C498.268 489.501 499.127 489.585 499.956 489.421C500.785 489.257 501.547 488.852 502.144 488.258C502.742 487.663 503.149 486.906 503.314 486.081C503.479 485.257 503.394 484.402 503.071 483.626C502.747 482.849 502.2 482.185 501.497 481.718C500.794 481.251 499.968 481.002 499.123 481.002C498.561 481.002 498.006 481.112 497.487 481.325C496.969 481.539 496.498 481.852 496.101 482.247C495.704 482.641 495.389 483.11 495.174 483.626C494.96 484.141 494.849 484.694 494.849 485.252Z" fill="white"/>
</g>
<path d="M454.333 493.579C458.956 492.831 462.093 488.497 461.341 483.899C460.589 479.301 456.232 476.18 451.609 476.928C446.986 477.676 443.849 482.01 444.601 486.608C445.353 491.206 449.71 494.327 454.333 493.579Z" fill="black"/>
<g opacity="0.4">
<path d="M454.333 493.578C458.956 492.831 462.093 488.497 461.341 483.899C460.589 479.301 456.232 476.18 451.609 476.928C446.986 477.676 443.849 482.01 444.601 486.608C445.353 491.206 449.71 494.326 454.333 493.578Z" fill="white"/>
</g>
<g opacity="0.5">
<path d="M452.969 489.503C455.329 489.503 457.242 487.6 457.242 485.252C457.242 482.905 455.329 481.002 452.969 481.002C450.609 481.002 448.695 482.905 448.695 485.252C448.695 487.6 450.609 489.503 452.969 489.503Z" fill="white"/>
</g>
<path d="M404.972 480.384H409.945V477.877C409.948 474.794 411.18 471.838 413.371 469.657C415.562 467.475 418.533 466.247 421.634 466.241H447.863V461.295H421.634C417.218 461.295 412.983 463.04 409.86 466.146C406.738 469.251 404.984 473.463 404.984 477.855L404.972 480.384Z" fill="black"/>
<g opacity="0.6">
<path d="M404.972 480.384H409.945V477.877C409.948 474.794 411.18 471.838 413.371 469.657C415.562 467.475 418.533 466.247 421.634 466.241H447.863V461.295H421.634C417.218 461.295 412.983 463.04 409.86 466.146C406.738 469.251 404.984 473.463 404.984 477.855L404.972 480.384Z" fill="white"/>
</g>
<path d="M415.724 487.219C416.804 482.686 413.984 478.141 409.427 477.067C404.87 475.993 400.3 478.797 399.22 483.329C398.14 487.862 400.959 492.407 405.517 493.481C410.074 494.555 414.644 491.751 415.724 487.219Z" fill="black"/>
<g opacity="0.4">
<path d="M415.724 487.219C416.804 482.686 413.984 478.141 409.427 477.067C404.87 475.993 400.3 478.797 399.22 483.329C398.14 487.862 400.959 492.407 405.517 493.481C410.074 494.555 414.644 491.752 415.724 487.219Z" fill="white"/>
</g>
<g opacity="0.5">
<path d="M407.459 489.503C409.819 489.503 411.732 487.6 411.732 485.252C411.732 482.905 409.819 481.002 407.459 481.002C405.099 481.002 403.185 482.905 403.185 485.252C403.185 487.6 405.099 489.503 407.459 489.503Z" fill="white"/>
</g>
<path d="M458.719 456.007H447.219V472.777H458.719V456.007Z" fill="black"/>
<g opacity="0.6">
<path d="M458.719 456.007H447.219V472.777H458.719V456.007Z" fill="white"/>
</g>
<path d="M458.719 390.297H447.219V407.067H458.719V390.297Z" fill="black"/>
<g opacity="0.6">
<path d="M458.719 390.297H447.219V407.067H458.719V390.297Z" fill="white"/>
</g>
<path d="M397.302 461.284L399.578 472.766H390.165L384.837 462.609L397.302 461.284Z" fill="#B55B52"/>
<path d="M399.6 470.845C399.944 473.627 390.631 471.32 389.677 472.766C388.722 474.212 387.457 479.048 386.025 481.488C384.593 483.927 376.39 491.766 376.39 491.766H393.861L396.503 487.979L397.369 491.766H402.197C402.197 491.766 400.344 472.799 399.6 470.845Z" fill="#263238"/>
<path d="M379.886 466.252H402.175L400.777 459.441H378.488L379.886 466.252Z" fill="#263238"/>
<g opacity="0.3">
<path d="M379.886 466.252H402.175L400.777 459.441H378.488L379.886 466.252Z" fill="white"/>
</g>
</svg>
